G04*
G04 #@! TF.GenerationSoftware,Altium Limited,Altium Designer,24.5.2 (23)*
G04*
G04 Layer_Color=16711935*
%FSLAX25Y25*%
%MOIN*%
G70*
G04*
G04 #@! TF.SameCoordinates,906D8F54-8257-410E-A491-0C3AE59FFD44*
G04*
G04*
G04 #@! TF.FilePolarity,Negative*
G04*
G01*
G75*
G04:AMPARAMS|DCode=54|XSize=39.37mil|YSize=86.61mil|CornerRadius=19.68mil|HoleSize=0mil|Usage=FLASHONLY|Rotation=270.000|XOffset=0mil|YOffset=0mil|HoleType=Round|Shape=RoundedRectangle|*
%AMROUNDEDRECTD54*
21,1,0.03937,0.04724,0,0,270.0*
21,1,0.00000,0.08661,0,0,270.0*
1,1,0.03937,-0.02362,0.00000*
1,1,0.03937,-0.02362,0.00000*
1,1,0.03937,0.02362,0.00000*
1,1,0.03937,0.02362,0.00000*
%
%ADD54ROUNDEDRECTD54*%
G04:AMPARAMS|DCode=55|XSize=39.37mil|YSize=70.87mil|CornerRadius=19.68mil|HoleSize=0mil|Usage=FLASHONLY|Rotation=270.000|XOffset=0mil|YOffset=0mil|HoleType=Round|Shape=RoundedRectangle|*
%AMROUNDEDRECTD55*
21,1,0.03937,0.03150,0,0,270.0*
21,1,0.00000,0.07087,0,0,270.0*
1,1,0.03937,-0.01575,0.00000*
1,1,0.03937,-0.01575,0.00000*
1,1,0.03937,0.01575,0.00000*
1,1,0.03937,0.01575,0.00000*
%
%ADD55ROUNDEDRECTD55*%
%ADD56R,0.06800X0.06800*%
%ADD57C,0.06800*%
%ADD58R,0.04400X0.04400*%
%ADD59C,0.04400*%
%ADD60R,0.04400X0.04400*%
D54*
X5572Y46108D02*
D03*
Y12092D02*
D03*
X5500Y101000D02*
D03*
Y66984D02*
D03*
D55*
X21320Y46108D02*
D03*
Y12092D02*
D03*
X21248Y101000D02*
D03*
Y66984D02*
D03*
D56*
X263700Y5600D02*
D03*
X264900Y104000D02*
D03*
D57*
X253700Y5600D02*
D03*
X243700D02*
D03*
X233700D02*
D03*
X223700D02*
D03*
X213700D02*
D03*
X203700D02*
D03*
X193700D02*
D03*
X183700D02*
D03*
X173700D02*
D03*
X163700D02*
D03*
X153700D02*
D03*
X143700D02*
D03*
X133700D02*
D03*
X123700D02*
D03*
X113700D02*
D03*
X103700D02*
D03*
X93700D02*
D03*
X83700D02*
D03*
X73700D02*
D03*
X63700D02*
D03*
X53700D02*
D03*
X43700D02*
D03*
X33700D02*
D03*
X34900Y104000D02*
D03*
X44900D02*
D03*
X54900D02*
D03*
X64900D02*
D03*
X74900D02*
D03*
X84900D02*
D03*
X94900D02*
D03*
X104900D02*
D03*
X114900D02*
D03*
X124900D02*
D03*
X134900D02*
D03*
X144900D02*
D03*
X154900D02*
D03*
X164900D02*
D03*
X174900D02*
D03*
X184900D02*
D03*
X194900D02*
D03*
X204900D02*
D03*
X214900D02*
D03*
X224900D02*
D03*
X234900D02*
D03*
X244900D02*
D03*
X254900D02*
D03*
D58*
X35000Y61000D02*
D03*
D59*
Y56000D02*
D03*
Y51000D02*
D03*
X150000Y55000D02*
D03*
D60*
X145000D02*
D03*
M02*
