G04*
G04 #@! TF.GenerationSoftware,Altium Limited,Altium Designer,24.5.2 (23)*
G04*
G04 Layer_Color=8388736*
%FSLAX25Y25*%
%MOIN*%
G70*
G04*
G04 #@! TF.SameCoordinates,906D8F54-8257-410E-A491-0C3AE59FFD44*
G04*
G04*
G04 #@! TF.FilePolarity,Negative*
G04*
G01*
G75*
%ADD20R,0.04528X0.02362*%
%ADD21R,0.04528X0.01181*%
%ADD23R,0.06102X0.05118*%
G04:AMPARAMS|DCode=24|XSize=53.43mil|YSize=22.53mil|CornerRadius=11.26mil|HoleSize=0mil|Usage=FLASHONLY|Rotation=0.000|XOffset=0mil|YOffset=0mil|HoleType=Round|Shape=RoundedRectangle|*
%AMROUNDEDRECTD24*
21,1,0.05343,0.00000,0,0,0.0*
21,1,0.03091,0.02253,0,0,0.0*
1,1,0.02253,0.01545,0.00000*
1,1,0.02253,-0.01545,0.00000*
1,1,0.02253,-0.01545,0.00000*
1,1,0.02253,0.01545,0.00000*
%
%ADD24ROUNDEDRECTD24*%
%ADD25R,0.05343X0.02253*%
G04:AMPARAMS|DCode=30|XSize=9.55mil|YSize=33.06mil|CornerRadius=4.77mil|HoleSize=0mil|Usage=FLASHONLY|Rotation=270.000|XOffset=0mil|YOffset=0mil|HoleType=Round|Shape=RoundedRectangle|*
%AMROUNDEDRECTD30*
21,1,0.00955,0.02351,0,0,270.0*
21,1,0.00000,0.03306,0,0,270.0*
1,1,0.00955,-0.01176,0.00000*
1,1,0.00955,-0.01176,0.00000*
1,1,0.00955,0.01176,0.00000*
1,1,0.00955,0.01176,0.00000*
%
%ADD30ROUNDEDRECTD30*%
G04:AMPARAMS|DCode=31|XSize=33.06mil|YSize=9.55mil|CornerRadius=4.77mil|HoleSize=0mil|Usage=FLASHONLY|Rotation=270.000|XOffset=0mil|YOffset=0mil|HoleType=Round|Shape=RoundedRectangle|*
%AMROUNDEDRECTD31*
21,1,0.03306,0.00000,0,0,270.0*
21,1,0.02351,0.00955,0,0,270.0*
1,1,0.00955,0.00000,-0.01176*
1,1,0.00955,0.00000,0.01176*
1,1,0.00955,0.00000,0.01176*
1,1,0.00955,0.00000,-0.01176*
%
%ADD31ROUNDEDRECTD31*%
%ADD32R,0.00955X0.03306*%
%ADD40R,0.02526X0.02762*%
%ADD41R,0.02762X0.02526*%
G04:AMPARAMS|DCode=42|XSize=29.2mil|YSize=32.35mil|CornerRadius=5.15mil|HoleSize=0mil|Usage=FLASHONLY|Rotation=90.000|XOffset=0mil|YOffset=0mil|HoleType=Round|Shape=RoundedRectangle|*
%AMROUNDEDRECTD42*
21,1,0.02920,0.02205,0,0,90.0*
21,1,0.01890,0.03235,0,0,90.0*
1,1,0.01030,0.01102,0.00945*
1,1,0.01030,0.01102,-0.00945*
1,1,0.01030,-0.01102,-0.00945*
1,1,0.01030,-0.01102,0.00945*
%
%ADD42ROUNDEDRECTD42*%
%ADD43R,0.02762X0.01778*%
%ADD44R,0.01778X0.02762*%
G04:AMPARAMS|DCode=45|XSize=29.2mil|YSize=32.35mil|CornerRadius=5.15mil|HoleSize=0mil|Usage=FLASHONLY|Rotation=180.000|XOffset=0mil|YOffset=0mil|HoleType=Round|Shape=RoundedRectangle|*
%AMROUNDEDRECTD45*
21,1,0.02920,0.02205,0,0,180.0*
21,1,0.01890,0.03235,0,0,180.0*
1,1,0.01030,-0.00945,0.01102*
1,1,0.01030,0.00945,0.01102*
1,1,0.01030,0.00945,-0.01102*
1,1,0.01030,-0.00945,-0.01102*
%
%ADD45ROUNDEDRECTD45*%
%ADD46R,0.08071X0.08071*%
%ADD47R,0.03156X0.02762*%
G04:AMPARAMS|DCode=48|XSize=129.98mil|YSize=72.9mil|CornerRadius=4.07mil|HoleSize=0mil|Usage=FLASHONLY|Rotation=90.000|XOffset=0mil|YOffset=0mil|HoleType=Round|Shape=RoundedRectangle|*
%AMROUNDEDRECTD48*
21,1,0.12998,0.06476,0,0,90.0*
21,1,0.12185,0.07290,0,0,90.0*
1,1,0.00813,0.03238,0.06093*
1,1,0.00813,0.03238,-0.06093*
1,1,0.00813,-0.03238,-0.06093*
1,1,0.00813,-0.03238,0.06093*
%
%ADD48ROUNDEDRECTD48*%
G04:AMPARAMS|DCode=49|XSize=39.43mil|YSize=72.9mil|CornerRadius=3.95mil|HoleSize=0mil|Usage=FLASHONLY|Rotation=90.000|XOffset=0mil|YOffset=0mil|HoleType=Round|Shape=RoundedRectangle|*
%AMROUNDEDRECTD49*
21,1,0.03943,0.06500,0,0,90.0*
21,1,0.03154,0.07290,0,0,90.0*
1,1,0.00790,0.03250,0.01577*
1,1,0.00790,0.03250,-0.01577*
1,1,0.00790,-0.03250,-0.01577*
1,1,0.00790,-0.03250,0.01577*
%
%ADD49ROUNDEDRECTD49*%
%ADD50R,0.03550X0.03550*%
%ADD51R,0.01975X0.03550*%
%ADD52R,0.03550X0.01975*%
%ADD53R,0.05124X0.05124*%
G04:AMPARAMS|DCode=54|XSize=39.37mil|YSize=86.61mil|CornerRadius=19.68mil|HoleSize=0mil|Usage=FLASHONLY|Rotation=270.000|XOffset=0mil|YOffset=0mil|HoleType=Round|Shape=RoundedRectangle|*
%AMROUNDEDRECTD54*
21,1,0.03937,0.04724,0,0,270.0*
21,1,0.00000,0.08661,0,0,270.0*
1,1,0.03937,-0.02362,0.00000*
1,1,0.03937,-0.02362,0.00000*
1,1,0.03937,0.02362,0.00000*
1,1,0.03937,0.02362,0.00000*
%
%ADD54ROUNDEDRECTD54*%
G04:AMPARAMS|DCode=55|XSize=39.37mil|YSize=70.87mil|CornerRadius=19.68mil|HoleSize=0mil|Usage=FLASHONLY|Rotation=270.000|XOffset=0mil|YOffset=0mil|HoleType=Round|Shape=RoundedRectangle|*
%AMROUNDEDRECTD55*
21,1,0.03937,0.03150,0,0,270.0*
21,1,0.00000,0.07087,0,0,270.0*
1,1,0.03937,-0.01575,0.00000*
1,1,0.03937,-0.01575,0.00000*
1,1,0.03937,0.01575,0.00000*
1,1,0.03937,0.01575,0.00000*
%
%ADD55ROUNDEDRECTD55*%
%ADD56R,0.06800X0.06800*%
%ADD57C,0.06800*%
%ADD58R,0.04400X0.04400*%
%ADD59C,0.04400*%
%ADD60R,0.04400X0.04400*%
G36*
X133293Y25551D02*
X133300Y25515D01*
X133318Y25496D01*
X133333Y25489D01*
X133399Y25452D01*
X133443Y25408D01*
X133458Y25401D01*
X133495Y25364D01*
X133510Y25357D01*
X133561Y25305D01*
X133576Y25298D01*
X133642Y25246D01*
X133660Y25220D01*
X133686Y25187D01*
X133701Y25180D01*
X133734Y25147D01*
X133741Y25132D01*
X133822Y25051D01*
X133844Y25014D01*
X133877Y24981D01*
X133892Y24974D01*
X133903Y24963D01*
X133962Y24853D01*
X133976Y24838D01*
X133984Y24823D01*
X134013Y24772D01*
X134050Y24713D01*
X134160Y24485D01*
X134204Y24389D01*
X134215Y24334D01*
X134230Y24297D01*
X134241Y24286D01*
X134263Y24235D01*
X134271Y24183D01*
X134278Y24154D01*
X134285Y24073D01*
X134300Y24036D01*
X134322Y23985D01*
X134337Y23926D01*
X134344Y23830D01*
X134352Y23602D01*
X134344Y13674D01*
X134337Y13652D01*
X134329Y13593D01*
X134322Y13571D01*
X134308Y13534D01*
X134285Y13461D01*
X134274Y13391D01*
X134267Y13347D01*
X134245Y13288D01*
X134219Y13240D01*
X134201Y13156D01*
X134190Y13130D01*
X134160Y13086D01*
X134131Y13019D01*
X134043Y12850D01*
X134028Y12835D01*
X133999Y12769D01*
X133980Y12722D01*
X133962Y12696D01*
X133932Y12666D01*
X133888Y12585D01*
X133877Y12574D01*
X133862Y12567D01*
X133815Y12519D01*
X133807Y12505D01*
X133774Y12464D01*
X133734Y12424D01*
X133727Y12409D01*
X133598Y12280D01*
X133583Y12273D01*
X133568Y12258D01*
X133554Y12251D01*
X133495Y12192D01*
X133480Y12185D01*
X133465Y12170D01*
X133451Y12163D01*
X133436Y12148D01*
X133421Y12141D01*
X133406Y12126D01*
X133392Y12118D01*
X133293Y12049D01*
X133278Y12012D01*
X133274Y12001D01*
X125269Y12004D01*
X125276Y12056D01*
X125302Y12082D01*
X125317Y12089D01*
X125357Y12122D01*
X125364Y12137D01*
X125412Y12207D01*
X125431Y12225D01*
X125475Y12306D01*
X125556Y12387D01*
X125563Y12402D01*
X125593Y12446D01*
X125600Y12461D01*
X125633Y12501D01*
X125644Y12512D01*
X125666Y12549D01*
X125710Y12593D01*
X125717Y12608D01*
X125751Y12648D01*
X125784Y12681D01*
X125791Y12696D01*
X125861Y12788D01*
X125872Y12799D01*
X125879Y12813D01*
X125912Y12854D01*
X125938Y12880D01*
X125945Y12894D01*
X125979Y12935D01*
X125997Y12961D01*
X126034Y12997D01*
X126041Y13012D01*
X126078Y13063D01*
X126085Y13078D01*
X126122Y13115D01*
X126129Y13130D01*
X126159Y13181D01*
X126203Y13225D01*
X126240Y13292D01*
X126276Y13328D01*
X126284Y13343D01*
X126298Y13358D01*
X126306Y13372D01*
X126350Y13417D01*
X126387Y13483D01*
X126438Y13534D01*
X126446Y13549D01*
X126497Y13615D01*
X126523Y13634D01*
X126556Y13667D01*
X126563Y13681D01*
X126578Y13696D01*
X126585Y13711D01*
X126607Y13733D01*
X126615Y13747D01*
X126663Y13817D01*
X126721Y13891D01*
X126740Y13917D01*
X126791Y13983D01*
X126813Y14005D01*
X126821Y14020D01*
X126843Y14042D01*
X126850Y14056D01*
X126894Y14137D01*
X126913Y14156D01*
X126927Y14163D01*
X126979Y14244D01*
X126994Y14251D01*
X127008Y14266D01*
X127023Y14273D01*
X127063Y14336D01*
X127100Y14373D01*
X127108Y14387D01*
X127129Y14409D01*
X127159Y14461D01*
X127218Y14520D01*
X127225Y14534D01*
X127254Y14579D01*
X127262Y14593D01*
X127295Y14634D01*
X127343Y14682D01*
X127350Y14696D01*
X127424Y14799D01*
X127431Y14814D01*
X127482Y14865D01*
X127490Y14880D01*
X127541Y14946D01*
X127563Y14968D01*
X127571Y14983D01*
X127604Y15023D01*
X127615Y15034D01*
X127622Y15049D01*
X127674Y15115D01*
X127696Y15137D01*
X127703Y15152D01*
X127718Y15167D01*
X127725Y15182D01*
X127762Y15218D01*
X127769Y15233D01*
X127784Y15248D01*
X127791Y15262D01*
X127898Y15406D01*
X127953Y15461D01*
X127961Y15476D01*
X127990Y15505D01*
X127997Y15520D01*
X128100Y15652D01*
X128130Y15682D01*
X128133Y15685D01*
X128144Y15696D01*
X128152Y15711D01*
X128174Y15748D01*
X128181Y15777D01*
X128174Y15821D01*
X128148Y15847D01*
X128097Y15855D01*
X128052Y15847D01*
X128030Y15840D01*
X127869Y15847D01*
X127773Y15840D01*
X127626Y15847D01*
X127604Y15840D01*
X127424Y15844D01*
X127354Y15840D01*
X127332Y15847D01*
X127129Y15844D01*
X127015Y15847D01*
X126994Y15840D01*
X126942Y15833D01*
X126905Y15825D01*
X126880Y15799D01*
X126865Y15748D01*
X126846Y15700D01*
X126806Y15616D01*
X126780Y15546D01*
X126743Y15487D01*
X126725Y15446D01*
X126707Y15399D01*
X126666Y15307D01*
X126615Y15196D01*
X126593Y15145D01*
X126563Y15079D01*
X126526Y14998D01*
X126468Y14873D01*
X126453Y14836D01*
X126446Y14821D01*
X126416Y14755D01*
X126390Y14685D01*
X126372Y14637D01*
X126357Y14601D01*
X126298Y14476D01*
X126273Y14406D01*
X126262Y14395D01*
X126254Y14380D01*
X126232Y14329D01*
X126225Y14299D01*
X126210Y14262D01*
X126181Y14218D01*
X126166Y14181D01*
X126148Y14134D01*
X126085Y14005D01*
X126041Y13924D01*
X126019Y13872D01*
X126008Y13832D01*
X125971Y13773D01*
X125953Y13725D01*
X125942Y13685D01*
X125927Y13648D01*
X125916Y13637D01*
X125905Y13597D01*
X125890Y13560D01*
X125857Y13505D01*
X125850Y13490D01*
X125806Y13395D01*
X125791Y13358D01*
X125762Y13292D01*
X125740Y13240D01*
X125732Y13211D01*
X125706Y13141D01*
X125673Y13086D01*
X125666Y13056D01*
X125593Y12902D01*
X125585Y12858D01*
X125556Y12806D01*
X125534Y12769D01*
X125519Y12718D01*
X125482Y12652D01*
X125467Y12637D01*
X125453Y12600D01*
X125442Y12552D01*
X125431Y12527D01*
X125394Y12475D01*
X125375Y12427D01*
X125320Y12321D01*
X125309Y12280D01*
X125239Y12129D01*
X125225Y12093D01*
X125210Y12041D01*
X125206Y12001D01*
X121268Y12004D01*
X121261Y12041D01*
X121242Y12060D01*
X121228Y12067D01*
X121161Y12104D01*
X121103Y12163D01*
X121088Y12170D01*
X121022Y12222D01*
X121003Y12240D01*
X120996Y12254D01*
X120970Y12273D01*
X120930Y12306D01*
X120900Y12335D01*
X120893Y12350D01*
X120875Y12369D01*
X120860Y12376D01*
X120790Y12446D01*
X120783Y12461D01*
X120761Y12483D01*
X120753Y12497D01*
X120731Y12519D01*
X120724Y12534D01*
X120698Y12552D01*
X120658Y12585D01*
X120639Y12633D01*
X120621Y12659D01*
X120584Y12696D01*
X120569Y12733D01*
X120544Y12802D01*
X120525Y12828D01*
X120503Y12850D01*
X120496Y12865D01*
X120481Y12880D01*
X120393Y13049D01*
X120371Y13100D01*
X120345Y13170D01*
X120330Y13207D01*
X120290Y13336D01*
X120282Y13365D01*
X120272Y13413D01*
X120264Y13442D01*
X120249Y13479D01*
X120238Y13520D01*
X120224Y13578D01*
X120213Y13714D01*
X120205Y13847D01*
X120198Y13950D01*
X120191Y14075D01*
X120187Y14284D01*
X120194Y14306D01*
X120191Y23489D01*
X120198Y23591D01*
X120205Y23680D01*
X120213Y23842D01*
X120220Y23930D01*
X120227Y23989D01*
X120235Y24025D01*
X120242Y24055D01*
X120268Y24117D01*
X120282Y24169D01*
X120290Y24220D01*
X120297Y24250D01*
X120308Y24290D01*
X120338Y24371D01*
X120352Y24408D01*
X120393Y24492D01*
X120411Y24540D01*
X120426Y24577D01*
X120503Y24706D01*
X120584Y24860D01*
X120599Y24875D01*
X120606Y24890D01*
X120643Y24956D01*
X120717Y25029D01*
X120724Y25044D01*
X120757Y25084D01*
X120842Y25169D01*
X120849Y25184D01*
X120919Y25253D01*
X120933Y25261D01*
X120963Y25290D01*
X120977Y25298D01*
X121110Y25430D01*
X121125Y25437D01*
X121169Y25467D01*
X121220Y25496D01*
X121246Y25522D01*
X121253Y25551D01*
X129266Y25555D01*
X129270Y25522D01*
X129237Y25482D01*
X129222Y25474D01*
X129203Y25456D01*
X129196Y25441D01*
X129145Y25375D01*
X129123Y25353D01*
X129115Y25338D01*
X129064Y25272D01*
X129042Y25250D01*
X129034Y25235D01*
X129005Y25184D01*
X128968Y25132D01*
X128942Y25106D01*
X128928Y25099D01*
X128917Y25088D01*
X128909Y25073D01*
X128861Y25003D01*
X128828Y24970D01*
X128821Y24956D01*
X128770Y24890D01*
X128755Y24875D01*
X128747Y24860D01*
X128733Y24845D01*
X128725Y24831D01*
X128711Y24816D01*
X128703Y24801D01*
X128667Y24764D01*
X128659Y24750D01*
X128637Y24728D01*
X128630Y24713D01*
X128578Y24647D01*
X128564Y24632D01*
X128556Y24617D01*
X128516Y24555D01*
X128501Y24547D01*
X128475Y24522D01*
X128431Y24441D01*
X128420Y24430D01*
X128405Y24422D01*
X128380Y24397D01*
X128372Y24382D01*
X128303Y24290D01*
X128244Y24202D01*
X128225Y24183D01*
X128218Y24169D01*
X128174Y24125D01*
X128166Y24110D01*
X128137Y24081D01*
X128130Y24066D01*
X128108Y24044D01*
X128100Y24029D01*
X128086Y24014D01*
X128078Y24000D01*
X128056Y23978D01*
X128049Y23963D01*
X128019Y23933D01*
X128012Y23919D01*
X127972Y23864D01*
X127957Y23856D01*
X127931Y23830D01*
X127902Y23779D01*
X127865Y23742D01*
X127858Y23728D01*
X127821Y23676D01*
X127813Y23661D01*
X127784Y23632D01*
X127777Y23617D01*
X127729Y23547D01*
X127718Y23536D01*
X127710Y23521D01*
X127681Y23492D01*
X127674Y23477D01*
X127659Y23463D01*
X127652Y23448D01*
X127600Y23382D01*
X127585Y23367D01*
X127578Y23352D01*
X127541Y23301D01*
X127530Y23290D01*
X127516Y23282D01*
X127490Y23257D01*
X127482Y23242D01*
X127468Y23227D01*
X127461Y23213D01*
X127438Y23191D01*
X127431Y23176D01*
X127398Y23135D01*
X127380Y23117D01*
X127372Y23102D01*
X127357Y23088D01*
X127350Y23073D01*
X127302Y23003D01*
X127254Y22955D01*
X127247Y22941D01*
X127225Y22919D01*
X127218Y22904D01*
X127166Y22838D01*
X127137Y22794D01*
X127115Y22757D01*
X127104Y22746D01*
X127089Y22738D01*
X127063Y22713D01*
X127034Y22661D01*
X126960Y22558D01*
X126953Y22543D01*
X126880Y22470D01*
X126843Y22404D01*
X126828Y22389D01*
X126824Y22378D01*
X126810Y22371D01*
X126769Y22330D01*
X126762Y22315D01*
X126747Y22301D01*
X126740Y22286D01*
X126710Y22257D01*
X126703Y22242D01*
X126652Y22176D01*
X126600Y22124D01*
X126563Y22058D01*
X126541Y22036D01*
X126534Y22021D01*
X126512Y21999D01*
X126504Y21984D01*
X126490Y21970D01*
X126482Y21955D01*
X126468Y21940D01*
X126460Y21926D01*
X126424Y21889D01*
X126416Y21874D01*
X126394Y21852D01*
X126387Y21837D01*
X126365Y21786D01*
X126372Y21749D01*
X126390Y21731D01*
X126442Y21716D01*
X126582Y21723D01*
X126655Y21716D01*
X126971Y21723D01*
X127387Y21720D01*
X127538Y21723D01*
X127560Y21716D01*
X127604Y21723D01*
X127644Y21757D01*
X127666Y21779D01*
X127674Y21793D01*
X127696Y21845D01*
X127703Y21874D01*
X127747Y21955D01*
X127777Y22021D01*
X127795Y22069D01*
X127824Y22113D01*
X127839Y22150D01*
X127887Y22257D01*
X127905Y22304D01*
X127924Y22345D01*
X127975Y22455D01*
X128001Y22525D01*
X128016Y22562D01*
X128027Y22573D01*
X128034Y22588D01*
X128063Y22654D01*
X128089Y22724D01*
X128100Y22735D01*
X128115Y22771D01*
X128141Y22841D01*
X128166Y22882D01*
X128196Y22948D01*
X128203Y22977D01*
X128222Y23025D01*
X128262Y23110D01*
X128273Y23150D01*
X128350Y23316D01*
X128372Y23367D01*
X128380Y23382D01*
X128417Y23463D01*
X128435Y23510D01*
X128468Y23573D01*
X128505Y23654D01*
X128564Y23779D01*
X128571Y23808D01*
X128586Y23845D01*
X128600Y23860D01*
X128608Y23875D01*
X128637Y23948D01*
X128674Y24007D01*
X128689Y24058D01*
X128714Y24128D01*
X128747Y24183D01*
X128762Y24220D01*
X128788Y24290D01*
X128828Y24367D01*
X128847Y24415D01*
X128880Y24478D01*
X128895Y24536D01*
X128968Y24691D01*
X128983Y24750D01*
X129001Y24798D01*
X129012Y24809D01*
X129020Y24823D01*
X129056Y24904D01*
X129108Y25014D01*
X129145Y25081D01*
X129159Y25095D01*
X129181Y25147D01*
X129200Y25195D01*
X129215Y25232D01*
X129248Y25309D01*
X129255Y25323D01*
X129306Y25404D01*
X129321Y25441D01*
X129343Y25515D01*
X129347Y25555D01*
X133293Y25551D01*
D02*
G37*
G36*
X244744Y58740D02*
Y64252D01*
X247697D01*
X250256Y61693D01*
Y58740D01*
X244744D01*
D02*
G37*
%LPC*%
G36*
X129788Y21304D02*
X129148D01*
X128306Y21293D01*
X127674Y21286D01*
X127648Y21282D01*
X127626Y21290D01*
X127552Y21282D01*
X126273Y21275D01*
X126251Y21267D01*
X126052Y21282D01*
X126030Y21275D01*
X125986Y21267D01*
X125905Y21223D01*
X125865Y21183D01*
X125857Y21168D01*
X125809Y21098D01*
X125773Y21061D01*
X125758Y21054D01*
X125732Y21006D01*
X125703Y20955D01*
X125688Y20940D01*
X125681Y20925D01*
X125640Y20870D01*
X125626Y20863D01*
X125607Y20844D01*
X125600Y20830D01*
X125552Y20760D01*
X125534Y20742D01*
X125526Y20727D01*
X125493Y20686D01*
X125475Y20668D01*
X125467Y20653D01*
X125453Y20639D01*
X125445Y20624D01*
X125431Y20609D01*
X125423Y20595D01*
X125350Y20521D01*
X125342Y20506D01*
X125328Y20492D01*
X125320Y20477D01*
X125269Y20425D01*
X125239Y20374D01*
X125228Y20363D01*
X125214Y20356D01*
X125188Y20330D01*
X125173Y20278D01*
X125166Y20242D01*
X125188Y20205D01*
X125221Y20194D01*
X125361Y20186D01*
X125383Y20194D01*
X127129Y20190D01*
X127578Y20197D01*
X127641Y20201D01*
X127652Y20190D01*
X127644Y20139D01*
X127615Y20087D01*
X127563Y20021D01*
X127538Y19995D01*
X127527Y19991D01*
X127519Y19977D01*
X127490Y19925D01*
X127471Y19907D01*
X127438Y19888D01*
X127431Y19874D01*
X127402Y19822D01*
X127357Y19778D01*
X127321Y19712D01*
X127262Y19653D01*
X127254Y19638D01*
X127240Y19624D01*
X127210Y19572D01*
X127159Y19521D01*
X127152Y19506D01*
X127100Y19440D01*
X127063Y19388D01*
X127056Y19374D01*
X126986Y19282D01*
X126946Y19241D01*
X126938Y19227D01*
X126887Y19160D01*
X126854Y19120D01*
X126843Y19109D01*
X126835Y19094D01*
X126821Y19080D01*
X126813Y19065D01*
X126799Y19050D01*
X126791Y19035D01*
X126740Y18969D01*
X126703Y18932D01*
X126696Y18918D01*
X126674Y18896D01*
X126666Y18881D01*
X126652Y18866D01*
X126644Y18851D01*
X126607Y18815D01*
X126600Y18800D01*
X126571Y18771D01*
X126563Y18756D01*
X126534Y18712D01*
X126526Y18697D01*
X126512Y18682D01*
X126504Y18668D01*
X126490Y18653D01*
X126482Y18638D01*
X126446Y18601D01*
X126438Y18587D01*
X126416Y18565D01*
X126409Y18550D01*
X126394Y18535D01*
X126365Y18484D01*
X126332Y18443D01*
X126306Y18418D01*
X126269Y18351D01*
X126229Y18311D01*
X126218Y18307D01*
X126210Y18293D01*
X126173Y18241D01*
X126115Y18182D01*
X126078Y18116D01*
X126019Y18057D01*
X126012Y18043D01*
X125997Y18028D01*
X125990Y18013D01*
X125953Y17962D01*
X125945Y17947D01*
X125916Y17918D01*
X125909Y17903D01*
X125872Y17866D01*
X125865Y17851D01*
X125828Y17800D01*
X125820Y17785D01*
X125784Y17748D01*
X125780Y17737D01*
X125769Y17734D01*
X125762Y17719D01*
X125714Y17649D01*
X125681Y17616D01*
X125673Y17601D01*
X125622Y17535D01*
X125607Y17520D01*
X125578Y17469D01*
X125559Y17443D01*
X125545Y17436D01*
X125519Y17410D01*
X125489Y17358D01*
X125467Y17336D01*
X125460Y17322D01*
X125431Y17292D01*
X125423Y17278D01*
X125401Y17256D01*
X125394Y17241D01*
X125342Y17175D01*
X125328Y17160D01*
X125320Y17145D01*
X125291Y17094D01*
X125273Y17075D01*
X125258Y17068D01*
X125239Y17050D01*
X125232Y17035D01*
X125199Y16995D01*
X125188Y16983D01*
X125181Y16969D01*
X125151Y16917D01*
X125092Y16858D01*
X125085Y16844D01*
X125052Y16803D01*
X125015Y16759D01*
X124975Y16704D01*
X124967Y16689D01*
X124916Y16623D01*
X124894Y16601D01*
X124886Y16586D01*
X124872Y16572D01*
X124864Y16557D01*
X124828Y16520D01*
X124820Y16505D01*
X124805Y16491D01*
X124776Y16439D01*
X124743Y16406D01*
X124728Y16399D01*
X124714Y16384D01*
X124699Y16377D01*
X124680Y16336D01*
X124706Y16303D01*
X124758Y16288D01*
X124842Y16299D01*
X124993Y16303D01*
X125015Y16296D01*
X128589Y16303D01*
X128630Y16336D01*
X128659Y16366D01*
X128667Y16380D01*
X128681Y16395D01*
X128689Y16410D01*
X128703Y16424D01*
X128711Y16439D01*
X128733Y16461D01*
X128740Y16476D01*
X128814Y16549D01*
X128850Y16616D01*
X128895Y16660D01*
X128902Y16675D01*
X128950Y16744D01*
X128983Y16778D01*
X128990Y16792D01*
X129012Y16814D01*
X129020Y16829D01*
X129071Y16895D01*
X129123Y16947D01*
X129130Y16961D01*
X129167Y17020D01*
X129196Y17072D01*
X129222Y17097D01*
X129237Y17105D01*
X129248Y17116D01*
X129255Y17131D01*
X129306Y17197D01*
X129343Y17233D01*
X129351Y17248D01*
X129365Y17263D01*
X129387Y17314D01*
X129380Y17358D01*
X129362Y17377D01*
X129310Y17384D01*
X129259Y17377D01*
X129203Y17373D01*
X127222Y17377D01*
X127199Y17370D01*
X127137Y17373D01*
X127133Y17370D01*
X127111Y17377D01*
X126927Y17370D01*
X126905Y17362D01*
X126880Y17381D01*
X126876Y17414D01*
X126883Y17443D01*
X126913Y17487D01*
X126931Y17506D01*
X126938Y17520D01*
X126975Y17557D01*
X126982Y17572D01*
X127019Y17623D01*
X127063Y17667D01*
X127093Y17719D01*
X127137Y17763D01*
X127144Y17778D01*
X127174Y17829D01*
X127199Y17855D01*
X127214Y17862D01*
X127254Y17895D01*
X127262Y17910D01*
X127299Y17962D01*
X127306Y17976D01*
X127343Y18013D01*
X127380Y18079D01*
X127424Y18123D01*
X127442Y18171D01*
X127497Y18226D01*
X127505Y18241D01*
X127538Y18282D01*
X127556Y18300D01*
X127563Y18315D01*
X127600Y18366D01*
X127622Y18388D01*
X127630Y18403D01*
X127663Y18443D01*
X127696Y18476D01*
X127703Y18491D01*
X127718Y18506D01*
X127725Y18520D01*
X127769Y18565D01*
X127777Y18579D01*
X127810Y18627D01*
X127824Y18634D01*
X127865Y18697D01*
X127917Y18748D01*
X127924Y18763D01*
X127975Y18815D01*
X128012Y18881D01*
X128042Y18910D01*
X128049Y18925D01*
X128071Y18947D01*
X128078Y18962D01*
X128108Y18991D01*
X128115Y19006D01*
X128130Y19021D01*
X128137Y19035D01*
X128174Y19087D01*
X128181Y19102D01*
X128203Y19124D01*
X128211Y19138D01*
X128240Y19168D01*
X128247Y19182D01*
X128284Y19241D01*
X128291Y19256D01*
X128314Y19278D01*
X128321Y19293D01*
X128350Y19322D01*
X128358Y19337D01*
X128394Y19374D01*
X128402Y19388D01*
X128439Y19425D01*
X128446Y19440D01*
X128461Y19455D01*
X128468Y19469D01*
X128483Y19484D01*
X128490Y19499D01*
X128549Y19557D01*
X128556Y19572D01*
X128608Y19638D01*
X128630Y19660D01*
X128637Y19675D01*
X128659Y19697D01*
X128667Y19712D01*
X128696Y19756D01*
X128703Y19771D01*
X128806Y19874D01*
X128814Y19888D01*
X128850Y19940D01*
X128858Y19955D01*
X128964Y20098D01*
X128983Y20124D01*
X129012Y20153D01*
X129020Y20168D01*
X129034Y20183D01*
X129042Y20197D01*
X129056Y20212D01*
X129064Y20227D01*
X129115Y20278D01*
X129123Y20293D01*
X129174Y20359D01*
X129218Y20440D01*
X129251Y20473D01*
X129266Y20481D01*
X129284Y20499D01*
X129292Y20514D01*
X129325Y20554D01*
X129343Y20572D01*
X129351Y20587D01*
X129395Y20631D01*
X129424Y20683D01*
X129476Y20749D01*
X129520Y20793D01*
X129527Y20808D01*
X129549Y20830D01*
X129557Y20844D01*
X129593Y20896D01*
X129601Y20911D01*
X129652Y20962D01*
X129696Y21043D01*
X129726Y21072D01*
X129729Y21083D01*
X129740Y21087D01*
X129744Y21098D01*
X129759Y21106D01*
X129821Y21168D01*
X129843Y21220D01*
X129851Y21249D01*
X129829Y21286D01*
X129818Y21297D01*
X129788Y21304D01*
D02*
G37*
%LPD*%
D20*
X23584Y16502D02*
D03*
Y41698D02*
D03*
Y38549D02*
D03*
Y19651D02*
D03*
X23512Y71394D02*
D03*
Y96591D02*
D03*
Y93441D02*
D03*
Y74543D02*
D03*
D21*
X23584Y22210D02*
D03*
Y24179D02*
D03*
Y26147D02*
D03*
Y28116D02*
D03*
Y30084D02*
D03*
Y32053D02*
D03*
Y34021D02*
D03*
Y35990D02*
D03*
X23512Y77102D02*
D03*
Y79071D02*
D03*
Y81039D02*
D03*
Y83008D02*
D03*
Y84976D02*
D03*
Y86945D02*
D03*
Y88913D02*
D03*
Y90882D02*
D03*
D23*
X170950Y67142D02*
D03*
X139650D02*
D03*
X170950Y84858D02*
D03*
X139650D02*
D03*
X141150Y41958D02*
D03*
X172450D02*
D03*
Y24242D02*
D03*
X141150D02*
D03*
D24*
X127985Y85740D02*
D03*
X120500Y82000D02*
D03*
X120315Y63860D02*
D03*
X127800Y67600D02*
D03*
D25*
X120500Y89480D02*
D03*
X120315Y71340D02*
D03*
D30*
X90041Y84437D02*
D03*
Y82468D02*
D03*
Y80500D02*
D03*
Y78531D02*
D03*
Y76563D02*
D03*
X74959D02*
D03*
Y78531D02*
D03*
Y80500D02*
D03*
Y82468D02*
D03*
Y84437D02*
D03*
D31*
X86437Y72959D02*
D03*
X84469D02*
D03*
X82500D02*
D03*
X80532D02*
D03*
X78563D02*
D03*
Y88041D02*
D03*
X80532D02*
D03*
X82500D02*
D03*
X84469D02*
D03*
D32*
X86437D02*
D03*
D40*
X84000Y52000D02*
D03*
X80614D02*
D03*
X77228D02*
D03*
X80614D02*
D03*
X61800Y76700D02*
D03*
X58414D02*
D03*
X237507Y93800D02*
D03*
X240893D02*
D03*
X99693Y84500D02*
D03*
X96307D02*
D03*
X58414Y82100D02*
D03*
X61800D02*
D03*
X98693Y60000D02*
D03*
X95307D02*
D03*
X98693Y70500D02*
D03*
X95307D02*
D03*
Y65500D02*
D03*
X98693D02*
D03*
X201107Y15200D02*
D03*
X204493D02*
D03*
X210807Y15300D02*
D03*
X214193D02*
D03*
X199907Y87100D02*
D03*
X203293D02*
D03*
X200614Y56000D02*
D03*
X204000D02*
D03*
X201214Y49100D02*
D03*
X204600D02*
D03*
X200686Y56000D02*
D03*
X197300D02*
D03*
X201186Y49100D02*
D03*
X197800D02*
D03*
D41*
X41600Y33107D02*
D03*
Y36493D02*
D03*
X182500Y35307D02*
D03*
Y38693D02*
D03*
X66000Y63193D02*
D03*
Y59807D02*
D03*
X44500Y87407D02*
D03*
Y90793D02*
D03*
X44600Y79593D02*
D03*
Y76207D02*
D03*
X191900Y87207D02*
D03*
Y90593D02*
D03*
X195700Y23886D02*
D03*
Y20500D02*
D03*
X41000Y17500D02*
D03*
Y20886D02*
D03*
X111800Y85207D02*
D03*
Y88593D02*
D03*
X111700Y67100D02*
D03*
Y63714D02*
D03*
D42*
X44700Y66668D02*
D03*
Y70132D02*
D03*
X73000Y63232D02*
D03*
Y59768D02*
D03*
X53500Y22268D02*
D03*
Y25732D02*
D03*
X47900Y25665D02*
D03*
Y22200D02*
D03*
X53000Y40732D02*
D03*
Y37268D02*
D03*
X182100Y24535D02*
D03*
Y28000D02*
D03*
X178700Y74668D02*
D03*
Y78132D02*
D03*
D43*
X34400Y87020D02*
D03*
Y89579D02*
D03*
X34100Y77220D02*
D03*
Y79779D02*
D03*
X34400Y67921D02*
D03*
Y70480D02*
D03*
X32500Y32559D02*
D03*
Y30000D02*
D03*
Y25000D02*
D03*
Y22441D02*
D03*
D44*
X35280Y41500D02*
D03*
X32721D02*
D03*
D45*
X83232Y64800D02*
D03*
X79768D02*
D03*
X80068Y57900D02*
D03*
X83532D02*
D03*
X57768Y70000D02*
D03*
X61232D02*
D03*
X103000Y78000D02*
D03*
X99535D02*
D03*
X45732Y46000D02*
D03*
X42268D02*
D03*
X259268Y93800D02*
D03*
X262732D02*
D03*
X260168Y14300D02*
D03*
X263632D02*
D03*
X55032Y94800D02*
D03*
X51568D02*
D03*
X202732Y94500D02*
D03*
X199268D02*
D03*
X251232Y94000D02*
D03*
X247768D02*
D03*
D46*
X82500Y80500D02*
D03*
D47*
X185700Y86900D02*
D03*
Y90640D02*
D03*
X189200Y25140D02*
D03*
Y21400D02*
D03*
D48*
X85803Y32000D02*
D03*
D49*
X61197Y22945D02*
D03*
Y32000D02*
D03*
Y41055D02*
D03*
D50*
X268563Y82559D02*
D03*
X213445D02*
D03*
X268563Y27441D02*
D03*
X213445D02*
D03*
D51*
X264429Y82559D02*
D03*
X261083D02*
D03*
X257736D02*
D03*
X254390D02*
D03*
X251043D02*
D03*
X247697D02*
D03*
X244350D02*
D03*
X241004D02*
D03*
X237657D02*
D03*
X234311D02*
D03*
X230965D02*
D03*
X227618D02*
D03*
X224272D02*
D03*
X220925D02*
D03*
X217579D02*
D03*
Y27441D02*
D03*
X220925D02*
D03*
X224272D02*
D03*
X227618D02*
D03*
X230965D02*
D03*
X234311D02*
D03*
X237657D02*
D03*
X241004D02*
D03*
X244350D02*
D03*
X247697D02*
D03*
X251043D02*
D03*
X254390D02*
D03*
X257736D02*
D03*
X261083D02*
D03*
X264429D02*
D03*
D52*
X213445Y78425D02*
D03*
Y75079D02*
D03*
Y71732D02*
D03*
Y68386D02*
D03*
Y65039D02*
D03*
Y61693D02*
D03*
Y58346D02*
D03*
Y55000D02*
D03*
Y51653D02*
D03*
Y48307D02*
D03*
Y44961D02*
D03*
Y41614D02*
D03*
Y38268D02*
D03*
Y34921D02*
D03*
Y31575D02*
D03*
X268563D02*
D03*
Y34921D02*
D03*
Y38268D02*
D03*
Y41614D02*
D03*
Y44961D02*
D03*
Y48307D02*
D03*
Y51653D02*
D03*
Y55000D02*
D03*
Y58346D02*
D03*
Y61693D02*
D03*
Y65039D02*
D03*
Y68386D02*
D03*
Y71732D02*
D03*
Y75079D02*
D03*
Y78425D02*
D03*
D53*
X241004Y55000D02*
D03*
X247500D02*
D03*
Y48504D02*
D03*
X241004D02*
D03*
X234508D02*
D03*
Y55000D02*
D03*
Y61496D02*
D03*
X241004D02*
D03*
D54*
X5572Y46108D02*
D03*
Y12092D02*
D03*
X5500Y101000D02*
D03*
Y66984D02*
D03*
D55*
X21320Y46108D02*
D03*
Y12092D02*
D03*
X21248Y101000D02*
D03*
Y66984D02*
D03*
D56*
X263700Y5600D02*
D03*
X264900Y104000D02*
D03*
D57*
X253700Y5600D02*
D03*
X243700D02*
D03*
X233700D02*
D03*
X223700D02*
D03*
X213700D02*
D03*
X203700D02*
D03*
X193700D02*
D03*
X183700D02*
D03*
X173700D02*
D03*
X163700D02*
D03*
X153700D02*
D03*
X143700D02*
D03*
X133700D02*
D03*
X123700D02*
D03*
X113700D02*
D03*
X103700D02*
D03*
X93700D02*
D03*
X83700D02*
D03*
X73700D02*
D03*
X63700D02*
D03*
X53700D02*
D03*
X43700D02*
D03*
X33700D02*
D03*
X34900Y104000D02*
D03*
X44900D02*
D03*
X54900D02*
D03*
X64900D02*
D03*
X74900D02*
D03*
X84900D02*
D03*
X94900D02*
D03*
X104900D02*
D03*
X114900D02*
D03*
X124900D02*
D03*
X134900D02*
D03*
X144900D02*
D03*
X154900D02*
D03*
X164900D02*
D03*
X174900D02*
D03*
X184900D02*
D03*
X194900D02*
D03*
X204900D02*
D03*
X214900D02*
D03*
X224900D02*
D03*
X234900D02*
D03*
X244900D02*
D03*
X254900D02*
D03*
D58*
X35000Y61000D02*
D03*
D59*
Y56000D02*
D03*
Y51000D02*
D03*
X150000Y55000D02*
D03*
D60*
X145000D02*
D03*
M02*
