G04*
G04 #@! TF.GenerationSoftware,Altium Limited,Altium Designer,24.5.2 (23)*
G04*
G04 Layer_Physical_Order=4*
G04 Layer_Color=16711680*
%FSLAX25Y25*%
%MOIN*%
G70*
G04*
G04 #@! TF.SameCoordinates,906D8F54-8257-410E-A491-0C3AE59FFD44*
G04*
G04*
G04 #@! TF.FilePolarity,Positive*
G04*
G01*
G75*
%ADD11C,0.00600*%
G04:AMPARAMS|DCode=54|XSize=39.37mil|YSize=86.61mil|CornerRadius=19.68mil|HoleSize=0mil|Usage=FLASHONLY|Rotation=270.000|XOffset=0mil|YOffset=0mil|HoleType=Round|Shape=RoundedRectangle|*
%AMROUNDEDRECTD54*
21,1,0.03937,0.04724,0,0,270.0*
21,1,0.00000,0.08661,0,0,270.0*
1,1,0.03937,-0.02362,0.00000*
1,1,0.03937,-0.02362,0.00000*
1,1,0.03937,0.02362,0.00000*
1,1,0.03937,0.02362,0.00000*
%
%ADD54ROUNDEDRECTD54*%
G04:AMPARAMS|DCode=55|XSize=39.37mil|YSize=70.87mil|CornerRadius=19.68mil|HoleSize=0mil|Usage=FLASHONLY|Rotation=270.000|XOffset=0mil|YOffset=0mil|HoleType=Round|Shape=RoundedRectangle|*
%AMROUNDEDRECTD55*
21,1,0.03937,0.03150,0,0,270.0*
21,1,0.00000,0.07087,0,0,270.0*
1,1,0.03937,-0.01575,0.00000*
1,1,0.03937,-0.01575,0.00000*
1,1,0.03937,0.01575,0.00000*
1,1,0.03937,0.01575,0.00000*
%
%ADD55ROUNDEDRECTD55*%
%ADD62C,0.00603*%
%ADD65C,0.01001*%
%ADD66C,0.00623*%
%ADD68R,0.06400X0.06400*%
%ADD69C,0.06400*%
%ADD70R,0.04000X0.04000*%
%ADD71C,0.04000*%
%ADD72R,0.04000X0.04000*%
%ADD73C,0.02400*%
%ADD74C,0.04000*%
%ADD82C,0.01000*%
%ADD83C,0.01000*%
D11*
X194975Y65300D02*
X208300D01*
X189775Y70500D02*
X194975Y65300D01*
X197800Y44900D02*
X199800Y42900D01*
X179879Y44900D02*
X197800D01*
X167100Y73100D02*
X171900D01*
X145514Y83286D02*
X156914D01*
X167100Y73100D01*
X166082Y34700D02*
X166967Y35586D01*
X166082Y34700D02*
X166082D01*
X164282Y32900D02*
X166082Y34700D01*
X107482Y32900D02*
X164282D01*
X106227Y33327D02*
X107055D01*
X107482Y32900D01*
X87400Y14500D02*
X106227Y33327D01*
X208947Y83200D02*
X210147Y82000D01*
X194553Y83200D02*
X208947D01*
X193853Y82500D02*
X194553Y83200D01*
X194682Y80500D02*
X195382Y81200D01*
X208118D02*
X209318Y80000D01*
X195382Y81200D02*
X208118D01*
X176500Y87500D02*
X183500Y80500D01*
X194682D01*
X183718Y84100D02*
X185318Y82500D01*
X182728Y84100D02*
X183718D01*
X179200Y87628D02*
X182728Y84100D01*
X185318Y82500D02*
X193853D01*
X223300Y40200D02*
X252166D01*
X252266Y40100D02*
X259700D01*
X252166Y40200D02*
X252266Y40100D01*
X259700D02*
X260436Y39364D01*
X221000Y42500D02*
X223300Y40200D01*
X86500Y95221D02*
X87318Y94403D01*
X86500Y95221D02*
Y95600D01*
X87318Y94207D02*
Y94403D01*
Y94207D02*
X88525Y93000D01*
X97415D01*
X112777Y91223D02*
X115500Y88500D01*
X99192Y91223D02*
X112777D01*
X97415Y93000D02*
X99192Y91223D01*
X114364Y93223D02*
X118086Y89500D01*
X100021Y93223D02*
X114364D01*
X97743Y95500D02*
X100021Y93223D01*
X115192Y95223D02*
X118915Y91500D01*
X100849Y95223D02*
X115192D01*
X97572Y98500D02*
X100849Y95223D01*
X116021Y97223D02*
X119743Y93500D01*
X108372Y97700D02*
X108849Y97223D01*
X94900Y104000D02*
X101200Y97700D01*
X108849Y97223D02*
X116021D01*
X101200Y97700D02*
X108372D01*
X108481Y82801D02*
X113422D01*
X107881Y82200D02*
X108481Y82801D01*
X113422D02*
X115121Y84500D01*
X94000Y82379D02*
X94178Y82200D01*
X93379Y83000D02*
X94000Y82379D01*
X93000Y83000D02*
X93379D01*
X94178Y82200D02*
X107881D01*
X194500Y41500D02*
X196000D01*
X176858Y34200D02*
X187200D01*
X194500Y41500D01*
X251043Y77043D02*
Y82543D01*
X251000Y77000D02*
X251043Y77043D01*
X235523Y98063D02*
X251043Y82543D01*
X235523Y98063D02*
Y103377D01*
X220621Y60500D02*
X221000D01*
X218921Y62200D02*
X220621Y60500D01*
X176228Y62200D02*
X218921D01*
X169028Y55000D02*
X176228Y62200D01*
X150000Y55000D02*
X169028D01*
X222645Y33130D02*
X223818Y34303D01*
Y37318D02*
X224000Y37500D01*
X223818Y34303D02*
Y37318D01*
X227500Y36621D02*
Y37000D01*
X225818Y34939D02*
X227500Y36621D01*
X225818Y33475D02*
Y34939D01*
X224645Y32302D02*
X225818Y33475D01*
X222645Y28759D02*
Y33130D01*
X221414Y27528D02*
X222645Y28759D01*
X207443Y27528D02*
X221414D01*
X205215Y25300D02*
X207443Y27528D01*
X200800Y25300D02*
X205215D01*
X196100Y26200D02*
X201600Y31700D01*
X216700D01*
X220500Y35500D01*
X223058Y25528D02*
X224645Y27115D01*
Y32302D01*
X169914Y35586D02*
X170336Y35164D01*
X166967Y35586D02*
X169914D01*
X170336Y35164D02*
X171164D01*
X178000Y42000D01*
Y42500D01*
X65500Y66050D02*
X67000Y64550D01*
Y59950D02*
Y64550D01*
X64900Y102814D02*
Y104000D01*
X67000Y70450D02*
Y100714D01*
Y59950D02*
X67950Y59000D01*
X65500Y68950D02*
X67000Y70450D01*
X64900Y102814D02*
X67000Y100714D01*
X65500Y66050D02*
Y68950D01*
X67950Y59000D02*
X79500D01*
X84800Y64300D01*
Y64618D02*
X90182Y70000D01*
X94000Y73818D02*
X94517Y74336D01*
X95664D02*
X97091Y72909D01*
X90182Y70000D02*
X94000Y73818D01*
X84800Y64300D02*
Y64618D01*
X94517Y74336D02*
X95664D01*
X86766Y99305D02*
X90572Y95500D01*
X97743D01*
X84900Y104000D02*
X90400Y98500D01*
X97572D01*
X83743Y98969D02*
X85862Y99294D01*
X86014Y99305D02*
X86766D01*
X85862Y99294D02*
X86014Y99305D01*
X199800Y42900D02*
X211618D01*
X212018Y42500D01*
X178400Y46000D02*
X178779D01*
X179879Y44900D01*
X167830Y28000D02*
X181930Y42100D01*
X189200D01*
X190332Y32632D02*
X190600Y32900D01*
X177686Y32200D02*
X188428D01*
X188860Y32632D02*
X190332D01*
X188428Y32200D02*
X188860Y32632D01*
X196700Y33700D02*
X196800D01*
X193200Y30200D02*
X196700Y33700D01*
X212018Y42500D02*
X221000D01*
X192932Y71968D02*
X193200Y71700D01*
X191135Y71968D02*
X192932D01*
X190603Y72500D02*
X191135Y71968D01*
X179000Y72500D02*
X190603D01*
X200032Y78068D02*
X200300Y77800D01*
X198951Y78068D02*
X200032D01*
X181496Y78500D02*
X198518D01*
X198951Y78068D01*
X168200Y83300D02*
X179000Y72500D01*
X196321Y76500D02*
X197221Y75600D01*
X197600D01*
X180657Y76500D02*
X196321D01*
X168100Y59986D02*
X168686Y59400D01*
X168100Y59986D02*
Y62800D01*
X165600Y65300D02*
X168100Y62800D01*
X163500Y62000D02*
X163600Y62100D01*
X145879Y62000D02*
X163500D01*
X87900Y11000D02*
X106900Y30000D01*
X165200D01*
X60000Y11000D02*
X87900D01*
X52600Y14500D02*
X87400D01*
X43700Y5600D02*
X52600Y14500D01*
X54600Y5600D02*
X60000Y11000D01*
X83700Y5600D02*
X87100D01*
X90006Y8506D01*
X90794Y9294D02*
X109500Y28000D01*
X167830D01*
X143239Y64000D02*
X158374D01*
X139739Y60500D02*
X143239Y64000D01*
X158374D02*
X159674Y65300D01*
X135900Y60500D02*
Y75400D01*
X136100Y60500D02*
X139739D01*
X153400Y66000D02*
X157546D01*
X150700Y68700D02*
X153400Y66000D01*
X157546D02*
X163444Y71899D01*
X137243Y77875D02*
X146925D01*
X154400Y70400D01*
X159674Y65300D02*
X165600D01*
X260436Y31868D02*
Y39364D01*
Y31868D02*
X262000Y30304D01*
Y23900D02*
Y30304D01*
X243700Y5600D02*
X262000Y23900D01*
X165200Y30000D02*
X167200Y32000D01*
X135918Y79200D02*
X137243Y77875D01*
X128099Y79200D02*
X135918D01*
X127099Y78200D02*
X128099Y79200D01*
X119100Y78200D02*
X127099D01*
X163444Y71899D02*
Y72727D01*
X140672Y85300D02*
X144686Y81286D01*
X154886D02*
X163444Y72727D01*
X144686Y81286D02*
X154886D01*
X119458Y85300D02*
X140672D01*
X104500Y79500D02*
X116999Y67001D01*
X114200Y72500D02*
Y80100D01*
X116999Y67001D02*
Y69701D01*
Y67001D02*
X117000Y67000D01*
X114200Y72500D02*
X116999Y69701D01*
X174900Y104000D02*
X175183Y102700D01*
X176932Y102200D02*
X183832Y95300D01*
X175183Y102700D02*
X175683Y102200D01*
X176932D01*
X183832Y95300D02*
X205115D01*
X189818Y98082D02*
X190096Y97804D01*
X190489Y97790D02*
X204078Y97303D01*
X190096Y97804D02*
X190489Y97790D01*
X184900Y103000D02*
X189818Y98082D01*
X184900Y103000D02*
Y104000D01*
X204096Y97300D02*
X204872D01*
X204078Y97303D02*
X204096Y97300D01*
X205943D02*
X206236Y97007D01*
X208243Y95000D01*
X204928Y97300D02*
X205943D01*
X171600Y97300D02*
X179004D01*
X183004Y93300D02*
X196971D01*
X179004Y97300D02*
X183004Y93300D01*
X178175Y95300D02*
X183275Y90200D01*
X196918Y90600D02*
X197318Y90200D01*
X194282D02*
X194682Y90600D01*
X204272Y90200D02*
X207172Y87300D01*
X183275Y90200D02*
X194282D01*
X197318D02*
X204272D01*
X194682Y90600D02*
X196918D01*
X170772Y95300D02*
X178175D01*
X204286Y93300D02*
X208286Y89300D01*
X196972Y93300D02*
X204286D01*
X208286Y89300D02*
X221700D01*
X227614Y83386D01*
X207915Y92500D02*
X212172D01*
X213372Y91300D01*
X223200D02*
X230965Y83535D01*
X205115Y95300D02*
X207915Y92500D01*
X213372Y91300D02*
X223200D01*
X217635Y85200D02*
X220921Y81914D01*
X193725Y85200D02*
X217635D01*
X193025Y84500D02*
X193725Y85200D01*
X186147Y84500D02*
X193025D01*
X177347Y93300D02*
X186147Y84500D01*
X210147Y82000D02*
X216493D01*
X194828Y74500D02*
X198228Y71100D01*
X198300D01*
X179828Y74500D02*
X194828D01*
X169857Y87300D02*
X180657Y76500D01*
X178172Y70500D02*
X189775D01*
X171900Y73100D02*
X177600Y67400D01*
X220921Y72500D02*
Y81914D01*
X212743Y80000D02*
X214000Y78743D01*
X209318Y80000D02*
X212743D01*
X176796Y83200D02*
X181496Y78500D01*
X169028Y85300D02*
X179828Y74500D01*
X167372Y81300D02*
X178172Y70500D01*
X216493Y82000D02*
X217579Y80914D01*
X214000Y75000D02*
Y78743D01*
X217579Y78543D02*
Y80914D01*
X165500Y97286D02*
X169486Y93300D01*
X177347D01*
X179200Y87628D02*
Y88618D01*
X177618Y90200D02*
X179200Y88618D01*
X175628Y90200D02*
X177618D01*
X174528Y91300D02*
X175628Y90200D01*
X168657Y91300D02*
X174528D01*
X176785Y83200D02*
X176796D01*
X167486Y89300D02*
X170685D01*
X176785Y83200D01*
X166657Y87300D02*
X169857D01*
X165829Y85300D02*
X169028D01*
X164172Y81300D02*
X167372D01*
X165000Y83300D02*
X168200D01*
X161015Y87286D02*
X165000Y83300D01*
X147472Y87286D02*
X161015D01*
X164900Y104000D02*
X171600Y97300D01*
X166786Y99286D02*
X170772Y95300D01*
X164964Y94993D02*
X168657Y91300D01*
X204900Y104000D02*
X209402Y99498D01*
X217372Y97300D02*
X217786Y97300D01*
X227200D01*
X215672Y99000D02*
X217372Y97300D01*
X209595Y99305D02*
X210779Y99000D01*
X209402Y99498D02*
X209595Y99305D01*
X210779Y99000D02*
X215672D01*
X214900Y102600D02*
X217707Y99793D01*
X228500Y99500D02*
X228793Y99207D01*
X225262Y99314D02*
X227672Y99500D01*
X217707Y99793D02*
X218000Y99500D01*
X223544D01*
X227672D02*
X228500D01*
X228793Y99207D02*
X231523Y96477D01*
X225372Y93300D02*
X234307Y84364D01*
X214200Y93300D02*
X225372D01*
X234307Y72500D02*
Y84364D01*
X212500Y95000D02*
X214200Y93300D01*
X208243Y95000D02*
X212500D01*
X209072Y97000D02*
X214843D01*
X216543Y95300D02*
X226200D01*
X208072Y98000D02*
X209072Y97000D01*
X214843D02*
X216543Y95300D01*
X226200D02*
X237657Y83842D01*
X208072Y98000D02*
X208072D01*
X206913Y99159D02*
X208072Y98000D01*
X227200Y97300D02*
X241000Y83500D01*
X95500Y79500D02*
X104500D01*
X141379Y57500D02*
X145879Y62000D01*
X109086Y57500D02*
X141379D01*
X108500Y58086D02*
X109086Y57500D01*
X108500Y58086D02*
Y68318D01*
X103909Y72909D02*
X108500Y68318D01*
X97091Y72909D02*
X103909D01*
X115500Y88500D02*
X116258D01*
X119458Y85300D01*
X115121Y84500D02*
X115500D01*
X80198Y98702D02*
X80612Y98702D01*
X74900Y104000D02*
X80198Y98702D01*
X80620Y98702D02*
Y98702D01*
X118086Y89500D02*
X125000D01*
X127200Y87300D02*
X141500D01*
X125000Y89500D02*
X127200Y87300D01*
X141500D02*
X145514Y83286D01*
X126086Y91500D02*
X128286Y89300D01*
X142500D02*
X146514Y85286D01*
X118915Y91500D02*
X126086D01*
X128286Y89300D02*
X142500D01*
X146514Y85286D02*
X160186D01*
X164172Y81300D01*
X119743Y93500D02*
X126915D01*
X129115Y91300D01*
X143458D01*
X147472Y87286D01*
X131600Y97300D02*
X145943D01*
X124900Y104000D02*
X131600Y97300D01*
X128072Y98000D02*
X130772Y95300D01*
X145115D01*
X127743Y95500D02*
X129943Y93300D01*
X144286D01*
X148301Y89286D01*
X161843D01*
X165829Y85300D01*
X162671Y91286D02*
X166657Y87300D01*
X145115Y95300D02*
X149129Y91286D01*
X162671D01*
X145943Y97300D02*
X146236Y97007D01*
X149957Y93286D01*
X163500D02*
X163793Y92993D01*
X149957Y93286D02*
X163500D01*
X163793Y92993D02*
X167486Y89300D01*
X134900Y104000D02*
X139600Y99300D01*
X144900D01*
X146084Y99452D02*
X146206D01*
X146206D02*
X146620D01*
X150786Y95286D01*
X164672D02*
X164964Y94993D01*
X150786Y95286D02*
X164672D01*
X104900Y104000D02*
X109677Y99223D01*
X116849D02*
X120572Y95500D01*
X127743D01*
X109677Y99223D02*
X116849D01*
X120900Y98000D02*
X128072D01*
X114900Y104000D02*
X120900Y98000D01*
X233523Y97235D02*
Y97305D01*
X229528Y101300D02*
X233523Y97305D01*
X229458Y101300D02*
X229528D01*
X224900Y104000D02*
X226361D01*
X227755Y102606D02*
X228152D01*
X226361Y104000D02*
X227755Y102606D01*
X228152D02*
X229458Y101300D01*
X247693Y72500D02*
Y83065D01*
X233523Y97235D02*
X247693Y83065D01*
X214000Y75000D02*
X219200Y69800D01*
X244993D01*
X237657Y78543D02*
Y83842D01*
X241000Y72500D02*
Y83500D01*
X244350Y78543D02*
Y83579D01*
X231523Y96406D02*
Y96477D01*
Y96406D02*
X244350Y83579D01*
X244993Y69800D02*
X247693Y72500D01*
X178515Y30200D02*
X193200D01*
X53700Y5600D02*
X54600D01*
X93700D02*
X95100D01*
X115500Y26000D02*
X168658D01*
X95100Y5600D02*
X115500Y26000D01*
X168658D02*
X176858Y34200D01*
X105161Y5600D02*
X123561Y24000D01*
X169486D01*
X103700Y5600D02*
X105161D01*
X169486Y24000D02*
X177686Y32200D01*
X113700Y5600D02*
X115100D01*
X131500Y22000D02*
X170315D01*
X115100Y5600D02*
X131500Y22000D01*
X170315D02*
X178515Y30200D01*
X227618Y25964D02*
Y31457D01*
X225183Y23528D02*
X227618Y25964D01*
X209100Y23528D02*
X225183D01*
X228783Y24300D02*
X230383D01*
X209928Y21528D02*
X226011D01*
X228783Y24300D01*
X230968Y24886D02*
Y37500D01*
X230383Y24300D02*
X230968Y24886D01*
X211072Y19528D02*
X226839D01*
X229611Y22300D01*
X234311Y24111D02*
Y31457D01*
X232500Y22300D02*
X234311Y24111D01*
X229611Y22300D02*
X232500D01*
X211900Y17528D02*
X227668D01*
X237661Y20886D02*
Y37500D01*
X227668Y17528D02*
X230439Y20300D01*
X237076D02*
X237661Y20886D01*
X230439Y20300D02*
X237076D01*
X231268Y18300D02*
X240418D01*
X212680Y15480D02*
X228448D01*
X240418Y18300D02*
X241004Y18886D01*
X228448Y15480D02*
X231268Y18300D01*
X241004Y18886D02*
Y31457D01*
X232096Y16300D02*
X243769D01*
X214680Y13480D02*
X229276D01*
X232096Y16300D01*
X244354Y16886D02*
Y37500D01*
X243769Y16300D02*
X244354Y16886D01*
X244800Y14300D02*
X247697Y17197D01*
X230104Y11480D02*
X232925Y14300D01*
X247697Y17197D02*
Y31457D01*
X232925Y14300D02*
X244800D01*
X219730Y11480D02*
X230104D01*
X233753Y12300D02*
X246061D01*
X230377Y8923D02*
X233753Y12300D01*
X246061D02*
X251047Y17286D01*
X228233Y6633D02*
X229755Y8155D01*
X224733Y6633D02*
X228233D01*
X251047Y17286D02*
Y37500D01*
X217297D02*
X217583D01*
X203600Y36500D02*
X216297D01*
X202400Y35300D02*
X203600Y36500D01*
X216297D02*
X217297Y37500D01*
X179343Y28200D02*
X195272D01*
X137314Y19214D02*
X170357D01*
X202372Y35300D02*
X202400D01*
X170357Y19214D02*
X179343Y28200D01*
X195272D02*
X202372Y35300D01*
X180172Y26200D02*
X196100D01*
X144800Y16700D02*
X170672D01*
X180172Y26200D01*
X152800Y14700D02*
X171500D01*
X181000Y24200D02*
X187218D01*
X171500Y14700D02*
X181000Y24200D01*
X187218D02*
X190918Y20500D01*
X203243D02*
X208272Y25528D01*
X190918Y20500D02*
X203243D01*
X208272Y25528D02*
X223058D01*
X123700Y5600D02*
X137314Y19214D01*
X133700Y5600D02*
X144800Y16700D01*
X143700Y5600D02*
X152800Y14700D01*
X153700Y5600D02*
X160500Y12400D01*
X177800D01*
X183900Y18500D02*
X204072D01*
X177800Y12400D02*
X183900Y18500D01*
X204072D02*
X209100Y23528D01*
X178872Y10400D02*
X184972Y16500D01*
X167115Y10400D02*
X178872D01*
X204900Y16500D02*
X209928Y21528D01*
X184972Y16500D02*
X204900D01*
X185800Y14500D02*
X206043D01*
X174423Y6323D02*
X177623D01*
X185800Y14500D01*
X173700Y5600D02*
X174423Y6323D01*
X206043Y14500D02*
X211072Y19528D01*
X192600Y12500D02*
X206872D01*
X183700Y5600D02*
X184733Y6633D01*
X186733D02*
X192600Y12500D01*
X184733Y6633D02*
X186733D01*
X206872Y12500D02*
X211900Y17528D01*
X223700Y5600D02*
X224733Y6633D01*
X193700Y5600D02*
X198600Y10500D01*
X207700D01*
X212680Y15480D01*
X207573Y6373D02*
X214680Y13480D01*
X203700Y5600D02*
X204473Y6373D01*
X207573D01*
X218715Y10465D02*
X219730Y11480D01*
X218324Y10224D02*
X218491Y10391D01*
X218715Y10465D01*
X213700Y5600D02*
X218324Y10224D01*
X213700Y5600D02*
X213700D01*
X230965Y78543D02*
Y83535D01*
X227614Y72500D02*
Y83386D01*
X224272Y78543D02*
Y83728D01*
X220700Y87300D02*
X224272Y83728D01*
X207172Y87300D02*
X220700D01*
X144900Y104000D02*
X151614Y97286D01*
X165500D01*
X159614Y99286D02*
X166786D01*
X154900Y104000D02*
X159614Y99286D01*
X196971Y93300D02*
X196972Y93300D01*
X199107Y99793D02*
X199400Y99500D01*
X202063D02*
X204548Y99313D01*
X194900Y104000D02*
X199107Y99793D01*
X204925Y99300D02*
X205938Y99305D01*
X206766D01*
X199400Y99500D02*
X202063D01*
X206766Y99305D02*
X206913Y99159D01*
X214900Y102600D02*
Y104000D01*
X234900D02*
X235523Y103377D01*
D54*
X5572Y46108D02*
D03*
Y12092D02*
D03*
X5500Y101000D02*
D03*
Y66984D02*
D03*
D55*
X21320Y46108D02*
D03*
Y12092D02*
D03*
X21248Y101000D02*
D03*
Y66984D02*
D03*
D62*
X75344Y28451D02*
X89309Y42416D01*
X75925Y27049D02*
X89890Y41013D01*
X40652Y27049D02*
X75925D01*
X40552Y28451D02*
X75344D01*
X39300Y29500D02*
X39503D01*
X40552Y28451D01*
X39603Y26000D02*
X40652Y27049D01*
X39400Y26000D02*
X39603D01*
X205944Y51900D02*
X206371Y51474D01*
Y51116D02*
Y51474D01*
X206800Y54159D02*
Y54214D01*
X205944Y53303D02*
X206800Y54159D01*
Y54214D02*
X208000Y55414D01*
Y55900D01*
X200100Y51900D02*
X205944D01*
X200681Y53303D02*
X205944D01*
X206371Y51116D02*
X207400Y50086D01*
Y49600D02*
Y50086D01*
X194903Y57097D02*
X200100Y51900D01*
X195484Y58500D02*
X200681Y53303D01*
X175374Y57097D02*
X194903D01*
X174793Y58500D02*
X195484D01*
X158697Y42404D02*
X174793Y58500D01*
X159278Y41001D02*
X175374Y57097D01*
X172645Y50400D02*
X188100D01*
X190300Y48200D02*
X192200D01*
X188100Y50400D02*
X190300Y48200D01*
X89890Y41013D02*
X123803D01*
X89309Y42416D02*
X124384D01*
X124396Y42404D01*
X158697D01*
X123803Y41013D02*
X123814Y41001D01*
X159278D01*
X190003Y51803D02*
X190300Y52100D01*
X172064Y51803D02*
X190003D01*
X160441Y38195D02*
X172645Y50400D01*
X159860Y39599D02*
X172064Y51803D01*
X91041Y38195D02*
X160441D01*
X90460Y39599D02*
X159860D01*
X73505Y19250D02*
X75550D01*
X73151Y19603D02*
X73505Y19250D01*
X73151Y20306D02*
X91041Y38195D01*
X73151Y19603D02*
Y20306D01*
X71749Y20888D02*
X90460Y39599D01*
X71749Y19753D02*
Y20888D01*
X71245Y19250D02*
X71749Y19753D01*
X75550Y19250D02*
X75600Y19200D01*
X69050Y19250D02*
X71245D01*
X69000Y19300D02*
X69050Y19250D01*
D65*
X105314Y86500D02*
X105600D01*
X100819Y87500D02*
X104314D01*
X99119Y85799D02*
X100819Y87500D01*
X104314D02*
X105314Y86500D01*
X94000Y89002D02*
X94713D01*
X93569Y87431D02*
X94000D01*
X95250D01*
X95300Y87381D02*
Y88415D01*
X94713Y89002D02*
X95300Y88415D01*
X93500Y87500D02*
X93569Y87431D01*
X95250D02*
X96881Y85799D01*
X99119D01*
X94000Y88000D02*
X94713D01*
D66*
X38558Y89500D02*
X46269Y81788D01*
X46859Y83211D02*
X50286D01*
X51500Y84425D01*
Y84500D01*
X32500Y89012D02*
X34411Y90923D01*
X39147D01*
X51000Y80500D02*
Y80575D01*
X39147Y90923D02*
X46859Y83211D01*
X49786Y81788D02*
X51000Y80575D01*
X35000Y89500D02*
X38558D01*
X46269Y81788D02*
X49786D01*
X32500Y86077D02*
Y89012D01*
Y82600D02*
Y86077D01*
X33923Y88423D02*
X35000Y89500D01*
X33923Y86077D02*
Y88423D01*
Y86077D02*
X36000Y84000D01*
D68*
X263700Y5600D02*
D03*
X264900Y104000D02*
D03*
D69*
X253700Y5600D02*
D03*
X243700D02*
D03*
X233700D02*
D03*
X223700D02*
D03*
X213700D02*
D03*
X203700D02*
D03*
X193700D02*
D03*
X183700D02*
D03*
X173700D02*
D03*
X163700D02*
D03*
X153700D02*
D03*
X143700D02*
D03*
X133700D02*
D03*
X123700D02*
D03*
X113700D02*
D03*
X103700D02*
D03*
X93700D02*
D03*
X83700D02*
D03*
X73700D02*
D03*
X63700D02*
D03*
X53700D02*
D03*
X43700D02*
D03*
X33700D02*
D03*
X34900Y104000D02*
D03*
X44900D02*
D03*
X54900D02*
D03*
X64900D02*
D03*
X74900D02*
D03*
X84900D02*
D03*
X94900D02*
D03*
X104900D02*
D03*
X114900D02*
D03*
X124900D02*
D03*
X134900D02*
D03*
X144900D02*
D03*
X154900D02*
D03*
X164900D02*
D03*
X174900D02*
D03*
X184900D02*
D03*
X194900D02*
D03*
X204900D02*
D03*
X214900D02*
D03*
X224900D02*
D03*
X234900D02*
D03*
X244900D02*
D03*
X254900D02*
D03*
D70*
X35000Y61000D02*
D03*
D71*
Y56000D02*
D03*
Y51000D02*
D03*
X150000Y55000D02*
D03*
D72*
X145000D02*
D03*
D73*
X28500Y50300D02*
D03*
X28100Y46800D02*
D03*
X167000Y77800D02*
D03*
X224300Y74500D02*
D03*
X207500Y78000D02*
D03*
X200300Y77800D02*
D03*
X204100Y78200D02*
D03*
X86500Y95600D02*
D03*
X82600Y95500D02*
D03*
X84000Y49400D02*
D03*
X101700Y65500D02*
D03*
X102300Y60000D02*
D03*
X86600Y59700D02*
D03*
X44200Y41900D02*
D03*
X98000Y88500D02*
D03*
X105600Y86500D02*
D03*
X255500Y96500D02*
D03*
X196000Y41500D02*
D03*
X196800Y33700D02*
D03*
X189200Y42100D02*
D03*
X251000Y77000D02*
D03*
X186000Y37000D02*
D03*
X221000Y60500D02*
D03*
X224000Y37500D02*
D03*
X227500Y37000D02*
D03*
X220500Y35500D02*
D03*
X203000Y29000D02*
D03*
X178000Y42500D02*
D03*
X256000Y36000D02*
D03*
X69000Y67500D02*
D03*
X84500Y68500D02*
D03*
X51500Y84500D02*
D03*
X51000Y80500D02*
D03*
X48000Y72500D02*
D03*
X48500Y66500D02*
D03*
X72500Y49500D02*
D03*
X29000Y100500D02*
D03*
X45500Y94000D02*
D03*
X31000Y67500D02*
D03*
X27000D02*
D03*
X48500Y77000D02*
D03*
X38000Y79500D02*
D03*
X36000Y94000D02*
D03*
Y84000D02*
D03*
X32500Y82600D02*
D03*
X35000Y32500D02*
D03*
X39300Y29500D02*
D03*
X39400Y26000D02*
D03*
X33900Y20900D02*
D03*
X141200Y46800D02*
D03*
X204600Y45800D02*
D03*
X203300Y59500D02*
D03*
X208000Y55900D02*
D03*
X207400Y49600D02*
D03*
X190600Y32900D02*
D03*
X208300Y65300D02*
D03*
X187500Y54200D02*
D03*
X178400Y46000D02*
D03*
X193200Y71700D02*
D03*
X198300Y71100D02*
D03*
X187600Y47600D02*
D03*
X197600Y75600D02*
D03*
X38200Y32700D02*
D03*
X37700Y20200D02*
D03*
X36700Y24000D02*
D03*
X65900Y17200D02*
D03*
X78300Y17300D02*
D03*
X190300Y52100D02*
D03*
X192200Y48200D02*
D03*
X69000Y19300D02*
D03*
X75600Y19200D02*
D03*
X168600Y59400D02*
D03*
X163600Y62100D02*
D03*
X29200Y16300D02*
D03*
X56400Y18300D02*
D03*
X51900Y18200D02*
D03*
X46800Y18300D02*
D03*
X46300Y32000D02*
D03*
X55900D02*
D03*
X51300Y32100D02*
D03*
X92400Y51700D02*
D03*
X97500Y51500D02*
D03*
X102800D02*
D03*
X109000Y51600D02*
D03*
X114300Y51500D02*
D03*
X92900Y46500D02*
D03*
X98000Y46300D02*
D03*
X103300D02*
D03*
X109500Y46400D02*
D03*
X114800Y46300D02*
D03*
X113800Y35600D02*
D03*
X108500Y35700D02*
D03*
X102300Y35600D02*
D03*
X97000D02*
D03*
X91900Y35800D02*
D03*
X150700Y68700D02*
D03*
X154400Y70400D02*
D03*
X167200Y32000D02*
D03*
X167400Y41900D02*
D03*
X136100Y60500D02*
D03*
X135900Y75400D02*
D03*
X119100Y78200D02*
D03*
X114200Y80100D02*
D03*
X109500Y80000D02*
D03*
X185200Y98000D02*
D03*
X195800Y87900D02*
D03*
X177600Y67400D02*
D03*
X176500Y87500D02*
D03*
X268581Y87339D02*
D03*
X264500Y87000D02*
D03*
X117000Y67000D02*
D03*
X95500Y79500D02*
D03*
X93000Y83000D02*
D03*
X115500Y84500D02*
D03*
X93500Y87500D02*
D03*
X80500Y78500D02*
D03*
X84500D02*
D03*
Y82500D02*
D03*
X80500D02*
D03*
X51500Y89500D02*
D03*
X87500Y63500D02*
D03*
X73000Y55000D02*
D03*
X139575Y80575D02*
D03*
X182200Y21300D02*
D03*
X186400Y21200D02*
D03*
X200800Y25300D02*
D03*
X266800Y22100D02*
D03*
X249800Y89800D02*
D03*
X237800Y58200D02*
D03*
Y51800D02*
D03*
X244300Y51700D02*
D03*
Y58200D02*
D03*
X241004Y65500D02*
D03*
X251504Y61496D02*
D03*
Y55000D02*
D03*
X247500Y44500D02*
D03*
X241004D02*
D03*
X230504Y48504D02*
D03*
Y55000D02*
D03*
X230000Y62000D02*
D03*
X261083Y78543D02*
D03*
X264547Y78425D02*
D03*
Y75079D02*
D03*
Y71732D02*
D03*
Y68386D02*
D03*
Y65039D02*
D03*
Y61693D02*
D03*
Y58346D02*
D03*
Y55000D02*
D03*
Y51653D02*
D03*
Y48307D02*
D03*
Y44961D02*
D03*
Y41614D02*
D03*
Y38268D02*
D03*
Y34921D02*
D03*
Y31575D02*
D03*
X247693Y72500D02*
D03*
X254390Y31457D02*
D03*
X217579Y78543D02*
D03*
X217583Y37500D02*
D03*
X247697Y31457D02*
D03*
X251047Y37500D02*
D03*
X241004Y31457D02*
D03*
X244354Y37500D02*
D03*
X234311Y31457D02*
D03*
X237661Y37500D02*
D03*
X227618Y31457D02*
D03*
X230968Y37500D02*
D03*
X224272Y78543D02*
D03*
X220921Y72500D02*
D03*
X230965Y78543D02*
D03*
X227614Y72500D02*
D03*
X237657Y78543D02*
D03*
X234307Y72500D02*
D03*
X241000D02*
D03*
X244350Y78543D02*
D03*
D74*
X51500Y63560D02*
X59000Y71060D01*
Y99900D01*
X54900Y104000D02*
X59000Y99900D01*
X79626Y70000D02*
X82326Y72700D01*
X77126Y67500D02*
X79626Y70000D01*
X69000Y67500D02*
X77126D01*
X89200Y84574D02*
X91426Y86800D01*
X92800D02*
X93500Y87500D01*
X91426Y86800D02*
X92800D01*
X87200Y72700D02*
X90699Y76200D01*
X82326Y72700D02*
X87200D01*
X89200Y81426D02*
X90699Y79927D01*
X89200Y81426D02*
Y84574D01*
X90699Y76200D02*
Y79927D01*
X51500Y56000D02*
Y63560D01*
Y56000D02*
X66000D01*
X35000D02*
X51500D01*
X66000D02*
X72500Y49500D01*
D82*
X90794Y9294D02*
G03*
X90006Y8506I2906J-3694D01*
G01*
X204872Y97300D02*
G03*
X204928Y97300I28J6700D01*
G01*
X223544Y99500D02*
G03*
X225262Y99314I1357J4500D01*
G01*
X80612Y98702D02*
G03*
X80620Y98702I0J1000D01*
G01*
Y98702D02*
G03*
X83743Y98969I-419J23347D01*
G01*
X144900Y99300D02*
G03*
X146084Y99452I0J4700D01*
G01*
X230377Y8923D02*
G03*
X229755Y8155I3323J-3323D01*
G01*
X167115Y10400D02*
G03*
X163700Y5600I13498J-13217D01*
G01*
X204548Y99313D02*
G03*
X204925Y99300I352J4687D01*
G01*
D83*
X146206Y99452D02*
D03*
X230377Y8923D02*
D03*
M02*
