G04*
G04 #@! TF.GenerationSoftware,Altium Limited,Altium Designer,24.5.2 (23)*
G04*
G04 Layer_Color=32896*
%FSLAX25Y25*%
%MOIN*%
G70*
G04*
G04 #@! TF.SameCoordinates,906D8F54-8257-410E-A491-0C3AE59FFD44*
G04*
G04*
G04 #@! TF.FilePolarity,Positive*
G04*
G01*
G75*
%ADD11C,0.00600*%
%ADD67C,0.01200*%
%ADD82C,0.01000*%
D11*
X96600Y35832D02*
X93934D01*
Y35165D01*
X96600Y32499D01*
Y31833D01*
X93934D01*
X90602D02*
X91935D01*
X92601Y32499D01*
Y33832D01*
X91935Y34499D01*
X90602D01*
X89935Y33832D01*
Y33166D01*
X92601D01*
X87936Y31833D02*
X86603D01*
X85937Y32499D01*
Y33832D01*
X86603Y34499D01*
X87936D01*
X88603Y33832D01*
Y32499D01*
X87936Y31833D01*
X84604D02*
Y34499D01*
X82604D01*
X81938Y33832D01*
Y31833D01*
X73941Y35165D02*
X74607Y35832D01*
X75940D01*
X76606Y35165D01*
Y32499D01*
X75940Y31833D01*
X74607D01*
X73941Y32499D01*
X72608Y35832D02*
Y31833D01*
Y33832D01*
X71941Y34499D01*
X70608D01*
X69942Y33832D01*
Y31833D01*
X67943Y34499D02*
X66610D01*
X65943Y33832D01*
Y31833D01*
X67943D01*
X68609Y32499D01*
X67943Y33166D01*
X65943D01*
X64610Y34499D02*
Y31833D01*
Y33166D01*
X63944Y33832D01*
X63277Y34499D01*
X62611D01*
X59279Y30500D02*
X58612D01*
X57946Y31166D01*
Y34499D01*
X59945D01*
X60612Y33832D01*
Y32499D01*
X59945Y31833D01*
X57946D01*
X56613D02*
X55280D01*
X55946D01*
Y34499D01*
X56613D01*
X53281Y31833D02*
Y34499D01*
X51281D01*
X50615Y33832D01*
Y31833D01*
X47949Y30500D02*
X47283D01*
X46616Y31166D01*
Y34499D01*
X48616D01*
X49282Y33832D01*
Y32499D01*
X48616Y31833D01*
X46616D01*
X266900Y74901D02*
X264901Y76900D01*
X262901Y74901D01*
X264901Y72901D02*
Y70236D01*
Y68903D02*
Y66237D01*
X266900Y64904D02*
X262901D01*
Y62905D01*
X263568Y62238D01*
X264901D01*
X265567Y62905D01*
Y64904D01*
X262901Y60905D02*
Y59572D01*
Y60239D01*
X266900D01*
Y60905D01*
Y59572D01*
Y57573D02*
X262901D01*
X266900Y54907D01*
X262901D01*
X266900Y49575D02*
Y48243D01*
Y48909D01*
X262901D01*
X263568Y49575D01*
X264901Y46243D02*
Y43577D01*
Y42244D02*
Y39579D01*
X266900Y38246D02*
X264901Y36246D01*
X262901Y38246D01*
X262400Y69766D02*
Y67766D01*
X261734Y67100D01*
X261067Y67766D01*
X260401Y67100D01*
X259734Y67766D01*
Y69766D01*
X258401D02*
Y67766D01*
X257735Y67100D01*
X257068Y67766D01*
X256402Y67100D01*
X255735Y67766D01*
Y69766D01*
X254403D02*
Y67766D01*
X253736Y67100D01*
X253070Y67766D01*
X252403Y67100D01*
X251737Y67766D01*
Y69766D01*
X250404Y67100D02*
Y67766D01*
X249737D01*
Y67100D01*
X250404D01*
X246405D02*
Y70432D01*
Y69099D01*
X247072D01*
X245739D01*
X246405D01*
Y70432D01*
X245739Y71099D01*
X241740Y67100D02*
X243073D01*
X243739Y67766D01*
Y69099D01*
X243073Y69766D01*
X241740D01*
X241073Y69099D01*
Y68433D01*
X243739D01*
X237075Y71099D02*
Y67100D01*
X239074D01*
X239741Y67766D01*
Y69099D01*
X239074Y69766D01*
X237075D01*
X233743Y67100D02*
X235075D01*
X235742Y67766D01*
Y69099D01*
X235075Y69766D01*
X233743D01*
X233076Y69099D01*
Y68433D01*
X235742D01*
X231743Y69766D02*
X230410Y67100D01*
X229077Y69766D01*
X225745Y67100D02*
X227078D01*
X227745Y67766D01*
Y69099D01*
X227078Y69766D01*
X225745D01*
X225079Y69099D01*
Y68433D01*
X227745D01*
X223746Y67100D02*
X222413D01*
X223079D01*
Y71099D01*
X223746D01*
X220413Y67100D02*
Y67766D01*
X219747D01*
Y67100D01*
X220413D01*
X214416Y69766D02*
X216415D01*
X217081Y69099D01*
Y67766D01*
X216415Y67100D01*
X214416D01*
X212416D02*
X211083D01*
X210417Y67766D01*
Y69099D01*
X211083Y69766D01*
X212416D01*
X213083Y69099D01*
Y67766D01*
X212416Y67100D01*
X209084D02*
Y69766D01*
X208417D01*
X207751Y69099D01*
Y67100D01*
Y69099D01*
X207084Y69766D01*
X206418Y69099D01*
Y67100D01*
X165234Y47432D02*
X165901Y48099D01*
X167234D01*
X167900Y47432D01*
Y44766D01*
X167234Y44100D01*
X165901D01*
X165234Y44766D01*
X162568Y44100D02*
X163901Y45433D01*
Y46766D01*
X162568Y48099D01*
X157903Y44100D02*
X160569D01*
X157903Y46766D01*
Y47432D01*
X158570Y48099D01*
X159903D01*
X160569Y47432D01*
X156570D02*
X155904Y48099D01*
X154571D01*
X153904Y47432D01*
Y44766D01*
X154571Y44100D01*
X155904D01*
X156570Y44766D01*
Y47432D01*
X149906Y44100D02*
X152572D01*
X149906Y46766D01*
Y47432D01*
X150572Y48099D01*
X151905D01*
X152572Y47432D01*
X146574Y44100D02*
Y48099D01*
X148573Y46099D01*
X145907D01*
X144574Y44100D02*
X143241Y45433D01*
Y46766D01*
X144574Y48099D01*
X137243D02*
X134577D01*
Y47432D01*
X137243Y44766D01*
Y44100D01*
X134577D01*
X130579Y48099D02*
X133245D01*
Y44100D01*
X130579D01*
X133245Y46099D02*
X131912D01*
X127246Y48099D02*
X128579D01*
X129246Y47432D01*
Y44766D01*
X128579Y44100D01*
X127246D01*
X126580Y44766D01*
Y47432D01*
X127246Y48099D01*
X125247Y44100D02*
Y48099D01*
X122581Y44100D01*
Y48099D01*
X160734Y38265D02*
X163400D01*
Y34266D01*
X160734D01*
X163400Y36266D02*
X162067D01*
X156736Y37599D02*
X157402Y38265D01*
X158735D01*
X159401Y37599D01*
Y36932D01*
X158735Y36266D01*
X157402D01*
X156736Y35599D01*
Y34933D01*
X157402Y34266D01*
X158735D01*
X159401Y34933D01*
X155403Y34266D02*
Y38265D01*
X153403D01*
X152737Y37599D01*
Y36266D01*
X153403Y35599D01*
X155403D01*
X151404Y38265D02*
Y35599D01*
X150071Y34266D01*
X148738Y35599D01*
Y38265D01*
X147405Y34266D02*
X146072D01*
X146739D01*
Y38265D01*
X147405Y37599D01*
X144073Y33600D02*
X141407D01*
X140074Y38265D02*
X138741D01*
X139408D01*
Y34266D01*
X140074D01*
X138741D01*
X136742D02*
X135409D01*
X136075D01*
Y38265D01*
X136742Y37599D01*
X133410Y33600D02*
X130744D01*
X129411Y34266D02*
Y38265D01*
X127412D01*
X126745Y37599D01*
Y36266D01*
X127412Y35599D01*
X129411D01*
X32568Y24234D02*
X31901Y24901D01*
Y26234D01*
X32568Y26900D01*
X35234D01*
X35900Y26234D01*
Y24901D01*
X35234Y24234D01*
X33901D01*
Y25567D01*
X35900Y22901D02*
X31901D01*
X35900Y20235D01*
X31901D01*
Y18903D02*
X35900D01*
Y16903D01*
X35234Y16237D01*
X32568D01*
X31901Y16903D01*
Y18903D01*
X41901Y26900D02*
Y25567D01*
Y26234D01*
X45900D01*
Y26900D01*
Y25567D01*
X41901Y21568D02*
Y22901D01*
X42568Y23568D01*
X45234D01*
X45900Y22901D01*
Y21568D01*
X45234Y20902D01*
X42568D01*
X41901Y21568D01*
X45900Y17570D02*
X41901D01*
X43901Y19569D01*
Y16903D01*
X41901Y15570D02*
Y12904D01*
X42568D01*
X45234Y15570D01*
X45900D01*
X51901Y26900D02*
Y25567D01*
Y26234D01*
X55900D01*
Y26900D01*
Y25567D01*
X51901Y21568D02*
Y22901D01*
X52568Y23568D01*
X55234D01*
X55900Y22901D01*
Y21568D01*
X55234Y20902D01*
X52568D01*
X51901Y21568D01*
X55900Y17570D02*
X51901D01*
X53901Y19569D01*
Y16903D01*
X52568Y15570D02*
X51901Y14904D01*
Y13571D01*
X52568Y12904D01*
X53234D01*
X53901Y13571D01*
X54567Y12904D01*
X55234D01*
X55900Y13571D01*
Y14904D01*
X55234Y15570D01*
X54567D01*
X53901Y14904D01*
X53234Y15570D01*
X52568D01*
X53901Y14904D02*
Y13571D01*
X61901Y26900D02*
X65234D01*
X65900Y26234D01*
Y24901D01*
X65234Y24234D01*
X61901D01*
X62568Y20235D02*
X61901Y20902D01*
Y22235D01*
X62568Y22901D01*
X63234D01*
X63901Y22235D01*
Y20902D01*
X64567Y20235D01*
X65234D01*
X65900Y20902D01*
Y22235D01*
X65234Y22901D01*
X61901Y18903D02*
X65900D01*
Y16903D01*
X65234Y16237D01*
X64567D01*
X63901Y16903D01*
Y18903D01*
Y16903D01*
X63234Y16237D01*
X62568D01*
X61901Y16903D01*
Y18903D01*
X63901Y14904D02*
Y12238D01*
X71901Y26900D02*
X75234D01*
X75900Y26234D01*
Y24901D01*
X75234Y24234D01*
X71901D01*
X72568Y20235D02*
X71901Y20902D01*
Y22235D01*
X72568Y22901D01*
X73234D01*
X73901Y22235D01*
Y20902D01*
X74567Y20235D01*
X75234D01*
X75900Y20902D01*
Y22235D01*
X75234Y22901D01*
X71901Y18903D02*
X75900D01*
Y16903D01*
X75234Y16237D01*
X74567D01*
X73901Y16903D01*
Y18903D01*
Y16903D01*
X73234Y16237D01*
X72568D01*
X71901Y16903D01*
Y18903D01*
X73901Y14904D02*
Y12238D01*
X72568Y13571D02*
X75234D01*
X81901Y26900D02*
Y25567D01*
Y26234D01*
X85900D01*
Y26900D01*
Y25567D01*
X81901Y21568D02*
Y22901D01*
X82568Y23568D01*
X85234D01*
X85900Y22901D01*
Y21568D01*
X85234Y20902D01*
X82568D01*
X81901Y21568D01*
X85900Y16903D02*
Y19569D01*
X83234Y16903D01*
X82568D01*
X81901Y17570D01*
Y18903D01*
X82568Y19569D01*
X85900Y15570D02*
Y14237D01*
Y14904D01*
X81901D01*
X82568Y15570D01*
X91901Y26900D02*
Y25567D01*
Y26234D01*
X95900D01*
Y26900D01*
Y25567D01*
X91901Y21568D02*
Y22901D01*
X92568Y23568D01*
X95234D01*
X95900Y22901D01*
Y21568D01*
X95234Y20902D01*
X92568D01*
X91901Y21568D01*
X95900Y16903D02*
Y19569D01*
X93234Y16903D01*
X92568D01*
X91901Y17570D01*
Y18903D01*
X92568Y19569D01*
X91901Y12904D02*
X92568Y14237D01*
X93901Y15570D01*
X95234D01*
X95900Y14904D01*
Y13571D01*
X95234Y12904D01*
X94567D01*
X93901Y13571D01*
Y15570D01*
X101901Y26900D02*
Y25567D01*
Y26234D01*
X105900D01*
Y26900D01*
Y25567D01*
X101901Y21568D02*
Y22901D01*
X102568Y23568D01*
X105234D01*
X105900Y22901D01*
Y21568D01*
X105234Y20902D01*
X102568D01*
X101901Y21568D01*
X102568Y19569D02*
X101901Y18903D01*
Y17570D01*
X102568Y16903D01*
X103234D01*
X103901Y17570D01*
Y18236D01*
Y17570D01*
X104567Y16903D01*
X105234D01*
X105900Y17570D01*
Y18903D01*
X105234Y19569D01*
X102568Y15570D02*
X101901Y14904D01*
Y13571D01*
X102568Y12904D01*
X103234D01*
X103901Y13571D01*
Y14237D01*
Y13571D01*
X104567Y12904D01*
X105234D01*
X105900Y13571D01*
Y14904D01*
X105234Y15570D01*
X111901Y26900D02*
Y25567D01*
Y26234D01*
X115900D01*
Y26900D01*
Y25567D01*
X111901Y21568D02*
Y22901D01*
X112568Y23568D01*
X115234D01*
X115900Y22901D01*
Y21568D01*
X115234Y20902D01*
X112568D01*
X111901Y21568D01*
X112568Y19569D02*
X111901Y18903D01*
Y17570D01*
X112568Y16903D01*
X113234D01*
X113901Y17570D01*
Y18236D01*
Y17570D01*
X114567Y16903D01*
X115234D01*
X115900Y17570D01*
Y18903D01*
X115234Y19569D01*
X115900Y13571D02*
X111901D01*
X113901Y15570D01*
Y12904D01*
X121901Y26900D02*
Y25567D01*
Y26234D01*
X125900D01*
Y26900D01*
Y25567D01*
X121901Y21568D02*
Y22901D01*
X122568Y23568D01*
X125233D01*
X125900Y22901D01*
Y21568D01*
X125233Y20902D01*
X122568D01*
X121901Y21568D01*
X122568Y19569D02*
X121901Y18903D01*
Y17570D01*
X122568Y16903D01*
X123234D01*
X123901Y17570D01*
Y18236D01*
Y17570D01*
X124567Y16903D01*
X125233D01*
X125900Y17570D01*
Y18903D01*
X125233Y19569D01*
X121901Y12904D02*
Y15570D01*
X123901D01*
X123234Y14237D01*
Y13571D01*
X123901Y12904D01*
X125233D01*
X125900Y13571D01*
Y14904D01*
X125233Y15570D01*
X131901Y26900D02*
Y25567D01*
Y26234D01*
X135900D01*
Y26900D01*
Y25567D01*
X131901Y21568D02*
Y22901D01*
X132568Y23568D01*
X135233D01*
X135900Y22901D01*
Y21568D01*
X135233Y20902D01*
X132568D01*
X131901Y21568D01*
X132568Y19569D02*
X131901Y18903D01*
Y17570D01*
X132568Y16903D01*
X133234D01*
X133901Y17570D01*
Y18236D01*
Y17570D01*
X134567Y16903D01*
X135233D01*
X135900Y17570D01*
Y18903D01*
X135233Y19569D01*
X131901Y12904D02*
X132568Y14237D01*
X133901Y15570D01*
X135233D01*
X135900Y14904D01*
Y13571D01*
X135233Y12904D01*
X134567D01*
X133901Y13571D01*
Y15570D01*
X141901Y26900D02*
Y25567D01*
Y26234D01*
X145900D01*
Y26900D01*
Y25567D01*
X141901Y21568D02*
Y22901D01*
X142568Y23568D01*
X145234D01*
X145900Y22901D01*
Y21568D01*
X145234Y20902D01*
X142568D01*
X141901Y21568D01*
X142568Y19569D02*
X141901Y18903D01*
Y17570D01*
X142568Y16903D01*
X143234D01*
X143901Y17570D01*
Y18236D01*
Y17570D01*
X144567Y16903D01*
X145234D01*
X145900Y17570D01*
Y18903D01*
X145234Y19569D01*
X141901Y15570D02*
Y12904D01*
X142568D01*
X145234Y15570D01*
X145900D01*
X151901Y26900D02*
Y25567D01*
Y26234D01*
X155900D01*
Y26900D01*
Y25567D01*
X151901Y21568D02*
Y22901D01*
X152568Y23568D01*
X155234D01*
X155900Y22901D01*
Y21568D01*
X155234Y20902D01*
X152568D01*
X151901Y21568D01*
X152568Y19569D02*
X151901Y18903D01*
Y17570D01*
X152568Y16903D01*
X153234D01*
X153901Y17570D01*
Y18236D01*
Y17570D01*
X154567Y16903D01*
X155234D01*
X155900Y17570D01*
Y18903D01*
X155234Y19569D01*
X152568Y15570D02*
X151901Y14904D01*
Y13571D01*
X152568Y12904D01*
X153234D01*
X153901Y13571D01*
X154567Y12904D01*
X155234D01*
X155900Y13571D01*
Y14904D01*
X155234Y15570D01*
X154567D01*
X153901Y14904D01*
X153234Y15570D01*
X152568D01*
X153901Y14904D02*
Y13571D01*
X161901Y26900D02*
Y25567D01*
Y26234D01*
X165900D01*
Y26900D01*
Y25567D01*
X161901Y21568D02*
Y22901D01*
X162568Y23568D01*
X165234D01*
X165900Y22901D01*
Y21568D01*
X165234Y20902D01*
X162568D01*
X161901Y21568D01*
X162568Y19569D02*
X161901Y18903D01*
Y17570D01*
X162568Y16903D01*
X163234D01*
X163901Y17570D01*
Y18236D01*
Y17570D01*
X164567Y16903D01*
X165234D01*
X165900Y17570D01*
Y18903D01*
X165234Y19569D01*
Y15570D02*
X165900Y14904D01*
Y13571D01*
X165234Y12904D01*
X162568D01*
X161901Y13571D01*
Y14904D01*
X162568Y15570D01*
X163234D01*
X163901Y14904D01*
Y12904D01*
X171901Y26900D02*
Y25567D01*
Y26234D01*
X175900D01*
Y26900D01*
Y25567D01*
X171901Y21568D02*
Y22901D01*
X172568Y23568D01*
X175233D01*
X175900Y22901D01*
Y21568D01*
X175233Y20902D01*
X172568D01*
X171901Y21568D01*
X175900Y17570D02*
X171901D01*
X173901Y19569D01*
Y16903D01*
X172568Y15570D02*
X171901Y14904D01*
Y13571D01*
X172568Y12904D01*
X175233D01*
X175900Y13571D01*
Y14904D01*
X175233Y15570D01*
X172568D01*
X181901Y26900D02*
Y25567D01*
Y26234D01*
X185900D01*
Y26900D01*
Y25567D01*
X181901Y21568D02*
Y22901D01*
X182568Y23568D01*
X185233D01*
X185900Y22901D01*
Y21568D01*
X185233Y20902D01*
X182568D01*
X181901Y21568D01*
X185900Y17570D02*
X181901D01*
X183901Y19569D01*
Y16903D01*
X185900Y15570D02*
Y14237D01*
Y14904D01*
X181901D01*
X182568Y15570D01*
X191901Y26900D02*
Y25567D01*
Y26234D01*
X195900D01*
Y26900D01*
Y25567D01*
X191901Y21568D02*
Y22901D01*
X192568Y23568D01*
X195234D01*
X195900Y22901D01*
Y21568D01*
X195234Y20902D01*
X192568D01*
X191901Y21568D01*
X195900Y17570D02*
X191901D01*
X193901Y19569D01*
Y16903D01*
X195900Y12904D02*
Y15570D01*
X193234Y12904D01*
X192568D01*
X191901Y13571D01*
Y14904D01*
X192568Y15570D01*
X201901Y26900D02*
Y24234D01*
Y25567D01*
X205900D01*
X201901Y22901D02*
X205900Y20235D01*
X201901D02*
X205900Y22901D01*
X201901Y18903D02*
X205900D01*
Y16903D01*
X205234Y16237D01*
X202568D01*
X201901Y16903D01*
Y18903D01*
X215900Y26900D02*
X211901D01*
Y24901D01*
X212568Y24234D01*
X213901D01*
X214567Y24901D01*
Y26900D01*
Y25567D02*
X215900Y24234D01*
X211901Y22901D02*
X215900Y20235D01*
X211901D02*
X215900Y22901D01*
X211901Y18903D02*
X215900D01*
Y16903D01*
X215234Y16237D01*
X212568D01*
X211901Y16903D01*
Y18903D01*
X221901Y26900D02*
Y25567D01*
Y26234D01*
X225900D01*
Y26900D01*
Y25567D01*
X221901Y21568D02*
Y22901D01*
X222568Y23568D01*
X225234D01*
X225900Y22901D01*
Y21568D01*
X225234Y20902D01*
X222568D01*
X221901Y21568D01*
X225900Y17570D02*
X221901D01*
X223901Y19569D01*
Y16903D01*
X221901Y12904D02*
Y15570D01*
X223901D01*
X223234Y14237D01*
Y13571D01*
X223901Y12904D01*
X225234D01*
X225900Y13571D01*
Y14904D01*
X225234Y15570D01*
X241901Y24234D02*
Y26900D01*
X245900D01*
Y24234D01*
X243901Y26900D02*
Y25567D01*
X245900Y22901D02*
X241901D01*
X245900Y20235D01*
X241901D01*
X252568Y23734D02*
X251901Y24401D01*
Y25734D01*
X252568Y26400D01*
X255234D01*
X255900Y25734D01*
Y24401D01*
X255234Y23734D01*
X253901D01*
Y25067D01*
X255900Y22401D02*
X251901D01*
X255900Y19736D01*
X251901D01*
Y18403D02*
X255900D01*
Y16403D01*
X255234Y15737D01*
X252568D01*
X251901Y16403D01*
Y18403D01*
X263568Y26900D02*
X262901Y26234D01*
Y24901D01*
X263568Y24234D01*
X264234D01*
X264901Y24901D01*
Y25567D01*
Y24901D01*
X265567Y24234D01*
X266234D01*
X266900Y24901D01*
Y26234D01*
X266234Y26900D01*
X262901Y22901D02*
X265567D01*
X266900Y21568D01*
X265567Y20235D01*
X262901D01*
X263568Y18903D02*
X262901Y18236D01*
Y16903D01*
X263568Y16237D01*
X264234D01*
X264901Y16903D01*
Y17570D01*
Y16903D01*
X265567Y16237D01*
X266234D01*
X266900Y16903D01*
Y18236D01*
X266234Y18903D01*
X231901Y26900D02*
Y25567D01*
Y26234D01*
X235900D01*
Y26900D01*
Y25567D01*
X231901Y21568D02*
Y22901D01*
X232568Y23568D01*
X235234D01*
X235900Y22901D01*
Y21568D01*
X235234Y20902D01*
X232568D01*
X231901Y21568D01*
X235900Y17570D02*
X231901D01*
X233901Y19569D01*
Y16903D01*
X231901Y12904D02*
X232568Y14237D01*
X233901Y15570D01*
X235234D01*
X235900Y14904D01*
Y13571D01*
X235234Y12904D01*
X234567D01*
X233901Y13571D01*
Y15570D01*
X62901Y96900D02*
Y95567D01*
Y96234D01*
X66900D01*
Y96900D01*
Y95567D01*
X62901Y91568D02*
Y92901D01*
X63568Y93568D01*
X66234D01*
X66900Y92901D01*
Y91568D01*
X66234Y90902D01*
X63568D01*
X62901Y91568D01*
X66900Y89569D02*
Y88236D01*
Y88903D01*
X62901D01*
X63568Y89569D01*
Y86237D02*
X62901Y85570D01*
Y84237D01*
X63568Y83571D01*
X64234D01*
X64901Y84237D01*
X65567Y83571D01*
X66234D01*
X66900Y84237D01*
Y85570D01*
X66234Y86237D01*
X65567D01*
X64901Y85570D01*
X64234Y86237D01*
X63568D01*
X64901Y85570D02*
Y84237D01*
X52901Y94234D02*
Y96900D01*
X54901D01*
X54234Y95567D01*
Y94901D01*
X54901Y94234D01*
X56234D01*
X56900Y94901D01*
Y96234D01*
X56234Y96900D01*
X52901Y92901D02*
X55567D01*
X56900Y91568D01*
X55567Y90236D01*
X52901D01*
X43568Y94234D02*
X42901Y94901D01*
Y96234D01*
X43568Y96900D01*
X46234D01*
X46900Y96234D01*
Y94901D01*
X46234Y94234D01*
X44901D01*
Y95567D01*
X46900Y92901D02*
X42901D01*
X46900Y90236D01*
X42901D01*
Y88903D02*
X46900D01*
Y86903D01*
X46234Y86237D01*
X43568D01*
X42901Y86903D01*
Y88903D01*
X37123Y96780D02*
X33125D01*
X37123Y94115D01*
X33125D01*
X33791Y90116D02*
X33125Y90782D01*
Y92115D01*
X33791Y92782D01*
X36457D01*
X37123Y92115D01*
Y90782D01*
X36457Y90116D01*
X112901Y96900D02*
Y95567D01*
Y96234D01*
X116900D01*
Y96900D01*
Y95567D01*
X112901Y91568D02*
Y92901D01*
X113568Y93568D01*
X116234D01*
X116900Y92901D01*
Y91568D01*
X116234Y90902D01*
X113568D01*
X112901Y91568D01*
X116900Y89569D02*
Y88236D01*
Y88903D01*
X112901D01*
X113568Y89569D01*
Y86237D02*
X112901Y85570D01*
Y84237D01*
X113568Y83571D01*
X114234D01*
X114901Y84237D01*
Y84904D01*
Y84237D01*
X115567Y83571D01*
X116234D01*
X116900Y84237D01*
Y85570D01*
X116234Y86237D01*
X102901Y96900D02*
Y95567D01*
Y96234D01*
X106900D01*
Y96900D01*
Y95567D01*
X102901Y91568D02*
Y92901D01*
X103568Y93568D01*
X106234D01*
X106900Y92901D01*
Y91568D01*
X106234Y90902D01*
X103568D01*
X102901Y91568D01*
X106900Y89569D02*
Y88236D01*
Y88903D01*
X102901D01*
X103568Y89569D01*
X106900Y84237D02*
X102901D01*
X104901Y86237D01*
Y83571D01*
X92901Y96900D02*
Y95567D01*
Y96234D01*
X96900D01*
Y96900D01*
Y95567D01*
X92901Y91568D02*
Y92901D01*
X93568Y93568D01*
X96234D01*
X96900Y92901D01*
Y91568D01*
X96234Y90902D01*
X93568D01*
X92901Y91568D01*
X96900Y89569D02*
Y88236D01*
Y88903D01*
X92901D01*
X93568Y89569D01*
X92901Y83571D02*
Y86237D01*
X94901D01*
X94234Y84904D01*
Y84237D01*
X94901Y83571D01*
X96234D01*
X96900Y84237D01*
Y85570D01*
X96234Y86237D01*
X82901Y96900D02*
Y95567D01*
Y96234D01*
X86900D01*
Y96900D01*
Y95567D01*
X82901Y91568D02*
Y92901D01*
X83568Y93568D01*
X86234D01*
X86900Y92901D01*
Y91568D01*
X86234Y90902D01*
X83568D01*
X82901Y91568D01*
X86900Y89569D02*
Y88236D01*
Y88903D01*
X82901D01*
X83568Y89569D01*
X82901Y83571D02*
X83568Y84904D01*
X84901Y86237D01*
X86234D01*
X86900Y85570D01*
Y84237D01*
X86234Y83571D01*
X85567D01*
X84901Y84237D01*
Y86237D01*
X72901Y96400D02*
Y95067D01*
Y95734D01*
X76900D01*
Y96400D01*
Y95067D01*
X72901Y91068D02*
Y92401D01*
X73568Y93068D01*
X76234D01*
X76900Y92401D01*
Y91068D01*
X76234Y90402D01*
X73568D01*
X72901Y91068D01*
X76900Y89069D02*
Y87736D01*
Y88403D01*
X72901D01*
X73568Y89069D01*
X72901Y85737D02*
Y83071D01*
X73568D01*
X76234Y85737D01*
X76900D01*
X162901Y96900D02*
Y95567D01*
Y96234D01*
X166900D01*
Y96900D01*
Y95567D01*
X162901Y91568D02*
Y92901D01*
X163568Y93568D01*
X166234D01*
X166900Y92901D01*
Y91568D01*
X166234Y90902D01*
X163568D01*
X162901Y91568D01*
X163568Y89569D02*
X162901Y88903D01*
Y87570D01*
X163568Y86903D01*
X164234D01*
X164901Y87570D01*
X165567Y86903D01*
X166234D01*
X166900Y87570D01*
Y88903D01*
X166234Y89569D01*
X165567D01*
X164901Y88903D01*
X164234Y89569D01*
X163568D01*
X164901Y88903D02*
Y87570D01*
X152901Y96900D02*
Y95567D01*
Y96234D01*
X156900D01*
Y96900D01*
Y95567D01*
X152901Y91568D02*
Y92901D01*
X153568Y93568D01*
X156234D01*
X156900Y92901D01*
Y91568D01*
X156234Y90902D01*
X153568D01*
X152901Y91568D01*
X156234Y89569D02*
X156900Y88903D01*
Y87570D01*
X156234Y86903D01*
X153568D01*
X152901Y87570D01*
Y88903D01*
X153568Y89569D01*
X154234D01*
X154901Y88903D01*
Y86903D01*
X142901Y96900D02*
Y95567D01*
Y96234D01*
X146900D01*
Y96900D01*
Y95567D01*
X142901Y91568D02*
Y92901D01*
X143568Y93568D01*
X146233D01*
X146900Y92901D01*
Y91568D01*
X146233Y90902D01*
X143568D01*
X142901Y91568D01*
X146900Y89569D02*
Y88236D01*
Y88903D01*
X142901D01*
X143568Y89569D01*
Y86237D02*
X142901Y85570D01*
Y84237D01*
X143568Y83571D01*
X146233D01*
X146900Y84237D01*
Y85570D01*
X146233Y86237D01*
X143568D01*
X132901Y96900D02*
Y95567D01*
Y96234D01*
X136900D01*
Y96900D01*
Y95567D01*
X132901Y91568D02*
Y92901D01*
X133568Y93568D01*
X136233D01*
X136900Y92901D01*
Y91568D01*
X136233Y90902D01*
X133568D01*
X132901Y91568D01*
X136900Y89569D02*
Y88236D01*
Y88903D01*
X132901D01*
X133568Y89569D01*
X136900Y86237D02*
Y84904D01*
Y85570D01*
X132901D01*
X133568Y86237D01*
X123125Y96780D02*
Y95447D01*
Y96114D01*
X127123D01*
Y96780D01*
Y95447D01*
X123125Y91449D02*
Y92782D01*
X123791Y93448D01*
X126457D01*
X127123Y92782D01*
Y91449D01*
X126457Y90782D01*
X123791D01*
X123125Y91449D01*
X127123Y89449D02*
Y88116D01*
Y88783D01*
X123125D01*
X123791Y89449D01*
X127123Y83451D02*
Y86117D01*
X124458Y83451D01*
X123791D01*
X123125Y84118D01*
Y85451D01*
X123791Y86117D01*
X212901Y96900D02*
Y95567D01*
Y96234D01*
X216900D01*
Y96900D01*
Y95567D01*
X212901Y91568D02*
Y92901D01*
X213568Y93568D01*
X216234D01*
X216900Y92901D01*
Y91568D01*
X216234Y90902D01*
X213568D01*
X212901Y91568D01*
X213568Y89569D02*
X212901Y88903D01*
Y87570D01*
X213568Y86903D01*
X214234D01*
X214901Y87570D01*
Y88236D01*
Y87570D01*
X215567Y86903D01*
X216234D01*
X216900Y87570D01*
Y88903D01*
X216234Y89569D01*
X202901Y96900D02*
Y95567D01*
Y96234D01*
X206900D01*
Y96900D01*
Y95567D01*
X202901Y91568D02*
Y92901D01*
X203568Y93568D01*
X206234D01*
X206900Y92901D01*
Y91568D01*
X206234Y90902D01*
X203568D01*
X202901Y91568D01*
X206900Y87570D02*
X202901D01*
X204901Y89569D01*
Y86903D01*
X192901Y96900D02*
Y95567D01*
Y96234D01*
X196900D01*
Y96900D01*
Y95567D01*
X193568Y93568D02*
X192901Y92901D01*
Y91568D01*
X193568Y90902D01*
X196233D01*
X196900Y91568D01*
Y92901D01*
X196233Y93568D01*
X193568D01*
X192901Y86903D02*
Y89569D01*
X194901D01*
X194234Y88236D01*
Y87570D01*
X194901Y86903D01*
X196233D01*
X196900Y87570D01*
Y88903D01*
X196233Y89569D01*
X182901Y96900D02*
Y95567D01*
Y96234D01*
X186900D01*
Y96900D01*
Y95567D01*
X182901Y91568D02*
Y92901D01*
X183568Y93568D01*
X186233D01*
X186900Y92901D01*
Y91568D01*
X186233Y90902D01*
X183568D01*
X182901Y91568D01*
Y86903D02*
X183568Y88236D01*
X184901Y89569D01*
X186233D01*
X186900Y88903D01*
Y87570D01*
X186233Y86903D01*
X185567D01*
X184901Y87570D01*
Y89569D01*
X173125Y96780D02*
Y95447D01*
Y96114D01*
X177123D01*
Y96780D01*
Y95447D01*
X173125Y91449D02*
Y92782D01*
X173791Y93448D01*
X176457D01*
X177123Y92782D01*
Y91449D01*
X176457Y90782D01*
X173791D01*
X173125Y91449D01*
Y89449D02*
Y86784D01*
X173791D01*
X176457Y89449D01*
X177123D01*
X223125Y96780D02*
Y95447D01*
Y96114D01*
X227123D01*
Y96780D01*
Y95447D01*
X223125Y91449D02*
Y92782D01*
X223791Y93448D01*
X226457D01*
X227123Y92782D01*
Y91449D01*
X226457Y90782D01*
X223791D01*
X223125Y91449D01*
X227123Y86784D02*
Y89449D01*
X224458Y86784D01*
X223791D01*
X223125Y87450D01*
Y88783D01*
X223791Y89449D01*
X232901Y96900D02*
Y95567D01*
Y96234D01*
X236900D01*
Y96900D01*
Y95567D01*
X232901Y91568D02*
Y92901D01*
X233568Y93568D01*
X236234D01*
X236900Y92901D01*
Y91568D01*
X236234Y90902D01*
X233568D01*
X232901Y91568D01*
X236900Y89569D02*
Y88236D01*
Y88903D01*
X232901D01*
X233568Y89569D01*
X242901Y96900D02*
Y95567D01*
Y96234D01*
X246900D01*
Y96900D01*
Y95567D01*
X242901Y91568D02*
Y92901D01*
X243568Y93568D01*
X246234D01*
X246900Y92901D01*
Y91568D01*
X246234Y90902D01*
X243568D01*
X242901Y91568D01*
X243568Y89569D02*
X242901Y88903D01*
Y87570D01*
X243568Y86903D01*
X246234D01*
X246900Y87570D01*
Y88903D01*
X246234Y89569D01*
X243568D01*
X253568Y96900D02*
X252901Y96234D01*
Y94901D01*
X253568Y94234D01*
X254234D01*
X254901Y94901D01*
Y95567D01*
Y94901D01*
X255567Y94234D01*
X256234D01*
X256900Y94901D01*
Y96234D01*
X256234Y96900D01*
X252901Y92901D02*
X255567D01*
X256900Y91568D01*
X255567Y90236D01*
X252901D01*
X253568Y88903D02*
X252901Y88236D01*
Y86903D01*
X253568Y86237D01*
X254234D01*
X254901Y86903D01*
Y87570D01*
Y86903D01*
X255567Y86237D01*
X256234D01*
X256900Y86903D01*
Y88236D01*
X256234Y88903D01*
X263568Y94234D02*
X262901Y94901D01*
Y96234D01*
X263568Y96900D01*
X266234D01*
X266900Y96234D01*
Y94901D01*
X266234Y94234D01*
X264901D01*
Y95567D01*
X266900Y92901D02*
X262901D01*
X266900Y90236D01*
X262901D01*
Y88903D02*
X266900D01*
Y86903D01*
X266234Y86237D01*
X263568D01*
X262901Y86903D01*
Y88903D01*
D67*
X186800Y73699D02*
Y69700D01*
X184801D01*
X184134Y70366D01*
Y73032D01*
X184801Y73699D01*
X186800D01*
X180136D02*
X182801D01*
Y69700D01*
X180136D01*
X182801Y71699D02*
X181468D01*
X176137Y73032D02*
X176803Y73699D01*
X178136D01*
X178803Y73032D01*
Y72366D01*
X178136Y71699D01*
X176803D01*
X176137Y71033D01*
Y70366D01*
X176803Y69700D01*
X178136D01*
X178803Y70366D01*
X174804Y73699D02*
X173471D01*
X174137D01*
Y69700D01*
X174804D01*
X173471D01*
X168806Y73032D02*
X169472Y73699D01*
X170805D01*
X171472Y73032D01*
Y70366D01*
X170805Y69700D01*
X169472D01*
X168806Y70366D01*
Y71699D01*
X170139D01*
X167473Y69700D02*
Y73699D01*
X164807Y69700D01*
Y73699D01*
X160808D02*
X163474D01*
Y69700D01*
X160808D01*
X163474Y71699D02*
X162141D01*
X159476Y73699D02*
Y69700D01*
X157476D01*
X156810Y70366D01*
Y73032D01*
X157476Y73699D01*
X159476D01*
X151478D02*
Y69700D01*
X150145Y71033D01*
X148812Y69700D01*
Y73699D01*
X147479D02*
X146147D01*
X146813D01*
Y69700D01*
X147479D01*
X146147D01*
X144147Y73699D02*
X141481D01*
X142814D01*
Y69700D01*
X140148Y73699D02*
Y69700D01*
Y71699D01*
X137483D01*
Y73699D01*
Y69700D01*
X129485Y73699D02*
X132151D01*
Y71699D01*
X130818D01*
X132151D01*
Y69700D01*
X125486Y73699D02*
X128152D01*
Y69700D01*
X125486D01*
X128152Y71699D02*
X126819D01*
X124153Y73699D02*
Y69700D01*
X122154D01*
X121488Y70366D01*
Y73032D01*
X122154Y73699D01*
X124153D01*
X117489D02*
X120155D01*
Y69700D01*
X117489D01*
X120155Y71699D02*
X118822D01*
X116156Y73699D02*
Y71033D01*
X114823Y69700D01*
X113490Y71033D01*
Y73699D01*
X109492D02*
X112157D01*
Y69700D01*
X109492D01*
X112157Y71699D02*
X110825D01*
X108159Y73699D02*
Y69700D01*
X105493D01*
D82*
X28672Y628D02*
G03*
X28700Y600I28J0D01*
G01*
X28672Y10661D02*
G03*
X28733Y10600I61J0D01*
G01*
X29872Y109061D02*
G03*
X29933Y109000I61J0D01*
G01*
X29872Y99028D02*
G03*
X29900Y99000I28J0D01*
G01*
X28700Y600D02*
X268700D01*
X28672Y628D02*
Y10661D01*
X28733Y10600D02*
X268700D01*
Y600D02*
Y10600D01*
X269900Y99000D02*
Y109000D01*
X29933D02*
X269900D01*
X29872Y99028D02*
Y109061D01*
X29900Y99000D02*
X269900D01*
M02*
